<?xml version="1.0" standalone="no"?>
<!DOCTYPE svg PUBLIC "-//W3C//DTD SVG 1.1//EN" "http://www.w3.org/Graphics/SVG/1.1/DTD/svg11.dtd">

<svg style="stroke:black; fill:none; stroke-width:0.25pt; stroke-linejoin:round; font-size:5; text-anchor:middle" xmlns="http://www.w3.org/2000/svg" font-family="Helvetica,Arial,FreeSans,Sans,sans,sans-serif" height="400px" width="400px" version="1.1" xmlns:xlink="http://www.w3.org/1999/xlink" viewBox="0 0 100 100">

<g font-size="5" id="frame429">

<clipPath id="clippath429">

<path d="M 15 3 L 97 3 L 97 92 L 15 92 Z" />

</clipPath>

<rect width="82.0" stroke="none" y="3.0" x="15.0" fill="none" id="background429" height="89.0" />

<g id="data429" clip-path="url(#clippath429)">

<path stroke-width="0.5pt" d="M15 47.945L25.1306 48.091L34.1683 48.3357L37.1742 48.4691L41.1912 48.732L42.5041 48.8519L44.286 49.0575L45.8281 49.2937L47.5805 49.667L48.7603 50.0201L50.2294 50.6617L50.7587 50.981L51.3777 51.4471L52.2452 52.3592L52.797 53.1962L53.0541 53.6933L53.4163 54.5615L53.7639 55.6593L54.0735 56.9704L54.4452 59.2343L54.6676 61.1933L54.9192 64.3816L55.1468 68.8847L55.2588 72.1139L55.3293 74.7022L55.3927 77.5423L55.5225 85.7068L55.5667 89.6064L55.6553 100.431L55.6951 107.348L55.7349 116.316L55.7576 122.769L55.7675 125.961L55.7757 128.842L55.7927 135.499L55.8087 142.887L55.8253 151.954L55.8308 155.332L55.84 161.555L55.852 170.766L55.8615 179.27L55.8683 186.057L55.8807 200.387L55.8878 210.104L55.894 219.583L55.8973 225.098L55.903 235.582L55.9086 247.024L55.9125 256.029L55.9159 264.557L55.9189 272.448L55.9227 283.59L55.9246 289.539L55.9278 300.064L55.9317 314.443L55.9325 317.885L55.9335 322.049L55.9351 328.736L55.9379 341.235L55.9389 346.038L55.9402 352.365L55.9417 360.321L55.9438 372.108L55.9448 378.044L55.9458 384.253L55.9469 391.253L55.9479 397.608L55.9502 413.524L55.9513 422.483L55.9526 432.592L55.9542 445.812L55.9547 450.677L55.9555 457.851L55.9562 463.742L55.9576 477.314L55.9581 482.692L55.9591 494.046L55.9603 507.055L55.9613 518.985L55.9617 524.167L55.962 527.297L55.9626 535.74L55.9633 544.662M55.9653 573.252L55.9661 585.512L55.9668 597.2L55.9672 604.28L55.9681 619.358L55.9686 628.134L55.9694 644.115L55.97 655.704L55.9706 668.772L55.9711 677.777L55.9716 689.309L55.9719 697.346L55.9724 709.746L55.9729 720.993L55.9733 731.467L55.9736 738.56L55.9742 753.339L55.9744 761.139L55.9749 774.885M55.9758 800.01L55.9761 809.423L55.9762 815.388L55.9763 818.759L55.9765 824.773L55.9768 832.668L55.9772 845.991L55.9774 853.325L55.9777 863.901M55.9786 899.492L55.9787 905.411L55.979 916.485L55.9793 927.716L55.9795 935.93L55.9797 947.559L55.98 958.432L55.9802 968.751L55.9804 978.087L55.9805 982.76L55.9807 991.714L55.9808 997.884L55.9811 1010.56L55.9812 1016.33L55.9813 1024.81L55.9814 1030.45L55.9816 1040.03M55.9823 1077.89M55.9828 1109.19M55.9833 1139.04M55.9841 1194.64M55.9847 1237.03M55.9856 1316.15M55.9859 1345.2M55.9867 1418.01M55.9879 1552M55.9886 1647.43M55.9893 1754.92M55.9898 1827.53M55.9903 1926.14M55.991 2064.76M55.9924 2438.79M55.9955 4142.1M55.9969 5859.54M55.9977 8069.31M55.9985 11904.2M55.9993 25276.2M56.0002 -108690M56.001 -17459.9M56.0014 -12848.9M56.0018 -10110M56.0021 -8660.42M56.0028 -6487.99M56.0034 -5296.29M56.0042 -4290.92M56.0054 -3343.93M56.0064 -2806.82M56.0068 -2633.22M56.0076 -2357.22M56.0081 -2199.85M56.0089 -2007.92M56.0096 -1848.6M56.01 -1777.16M56.0106 -1678.28M56.0118 -1492.82M56.0126 -1399.48M56.0135 -1299.08M56.0147 -1191.5M56.0155 -1133.35M56.0161 -1086.18M56.0169 -1034.45L56.017 -1023.09L56.0171 -1016.39L56.0173 -1004.83L56.0175 -993.666M56.0184 -945.012M56.0195 -888.798M56.0208 -829.652L56.0211 -817.353L56.0214 -804.83M56.0223 -770.577M56.024 -712.019L56.0244 -700.411L56.0246 -693.469M56.0259 -657.914M56.0275 -615.094M56.0292 -578.127M56.031 -541.217M56.0341 -488.276M56.036 -459.861L56.0364 -453.146L56.0368 -447.796L56.0374 -440.921L56.0381 -431.265L56.0388 -422.56L56.0391 -418.643L56.0404 -403.713L56.0413 -394.769L56.0418 -389.122L56.0426 -380.6L56.0436 -370.5L56.0452 -356.049L56.0459 -349.919L56.0475 -336.855L56.0483 -330.229L56.0502 -315.798L56.0515 -306.905L56.0536 -292.897L56.0548 -285.176L56.0554 -281.654L56.0568 -273.819L56.0589 -262.215L56.0602 -255.807L56.0619 -247.424L56.0634 -240.36L56.0644 -235.823L56.0654 -231.61L56.067 -224.924L56.0689 -217.391L56.0709 -209.884L56.0742 -198.437L56.0777 -187.183L56.0809 -177.968L56.0835 -170.942L56.0886 -158.346L56.0936 -147.507L56.0976 -139.451L56.1048 -126.565L56.1084 -120.845L56.1162 -109.58L56.1202 -104.333L56.1272 -95.9721L56.1338 -88.8567L56.1471 -76.5213L56.1629 -64.5241L56.1808 -53.3975L56.1902 -48.4486L56.1969 -45.1631L56.2289 -32.222L56.2659 -21.1058L56.2799 -17.6845L56.2968 -13.9712L56.3634 -2.7014L56.4486 6.83043L56.4986 10.907L56.5242 12.6959L56.6956 21.2718L56.8056 24.853L56.9702 28.695L57.34 33.8848L57.4686 35.0762L57.6536 36.4663L58.0549 38.6214L58.2476 39.3826L58.4355 40.0088L58.7295 40.8156L58.9331 41.2796L59.2604 41.904L59.5571 42.3708L60.0153 42.9561L60.342 43.298L60.805 43.7029L61.3022 44.059L62.3335 44.6193L63.1343 44.9426L64.1288 45.2555L65.9674 45.6695L68.342 46.0217L71.5234 46.3247L74.1646 46.4956L76.6626 46.617L79.5139 46.7241L82.9762 46.8237L85.0142 46.8712L87.0279 46.912L89.8202 46.9605L93.666 47.0156L97 47.055" />

<path stroke="none" d="M16 47.945A1 1 0 0 0 15 46.945A1 1 0 0 0 14 47.945A1 1 0 0 0 15 48.945A1 1 0 0 0 16 47.945M19.7124 47.9893A1 1 0 0 0 18.7124 46.9893A1 1 0 0 0 17.7124 47.9893A1 1 0 0 0 18.7124 48.9893A1 1 0 0 0 19.7124 47.9893M22.4842 48.0286A1 1 0 0 0 21.4842 47.0286A1 1 0 0 0 20.4842 48.0286A1 1 0 0 0 21.4842 49.0286A1 1 0 0 0 22.4842 48.0286M25.4073 48.0775A1 1 0 0 0 24.4073 47.0775A1 1 0 0 0 23.4073 48.0775A1 1 0 0 0 24.4073 49.0775A1 1 0 0 0 25.4073 48.0775M30.0731 48.1776A1 1 0 0 0 29.0731 47.1776A1 1 0 0 0 28.0731 48.1776A1 1 0 0 0 29.0731 49.1776A1 1 0 0 0 30.0731 48.1776M35.6052 48.3528A1 1 0 0 0 34.6052 47.3528A1 1 0 0 0 33.6052 48.3528A1 1 0 0 0 34.6052 49.3528A1 1 0 0 0 35.6052 48.3528M40.429 48.601A1 1 0 0 0 39.429 47.601A1 1 0 0 0 38.429 48.601A1 1 0 0 0 39.429 49.601A1 1 0 0 0 40.429 48.601M42.5729 48.7646A1 1 0 0 0 41.5729 47.7646A1 1 0 0 0 40.5729 48.7646A1 1 0 0 0 41.5729 49.7646A1 1 0 0 0 42.5729 48.7646M45.1595 49.0409A1 1 0 0 0 44.1595 48.0409A1 1 0 0 0 43.1595 49.0409A1 1 0 0 0 44.1595 50.0409A1 1 0 0 0 45.1595 49.0409M46.2833 49.2025A1 1 0 0 0 45.2833 48.2025A1 1 0 0 0 44.2833 49.2025A1 1 0 0 0 45.2833 50.2025A1 1 0 0 0 46.2833 49.2025M48.5398 49.6566A1 1 0 0 0 47.5398 48.6566A1 1 0 0 0 46.5398 49.6566A1 1 0 0 0 47.5398 50.6566A1 1 0 0 0 48.5398 49.6566M49.3192 49.8754A1 1 0 0 0 48.3192 48.8754A1 1 0 0 0 47.3192 49.8754A1 1 0 0 0 48.3192 50.8754A1 1 0 0 0 49.3192 49.8754M50.9417 50.5116A1 1 0 0 0 49.9417 49.5116A1 1 0 0 0 48.9417 50.5116A1 1 0 0 0 49.9417 51.5116A1 1 0 0 0 50.9417 50.5116M51.6365 50.9017A1 1 0 0 0 50.6365 49.9017A1 1 0 0 0 49.6365 50.9017A1 1 0 0 0 50.6365 51.9017A1 1 0 0 0 51.6365 50.9017M52.1432 51.2566A1 1 0 0 0 51.1432 50.2566A1 1 0 0 0 50.1432 51.2566A1 1 0 0 0 51.1432 52.2566A1 1 0 0 0 52.1432 51.2566M52.6266 51.6718A1 1 0 0 0 51.6266 50.6718A1 1 0 0 0 50.6266 51.6718A1 1 0 0 0 51.6266 52.6718A1 1 0 0 0 52.6266 51.6718M53.4048 52.5748A1 1 0 0 0 52.4048 51.5748A1 1 0 0 0 51.4048 52.5748A1 1 0 0 0 52.4048 53.5748A1 1 0 0 0 53.4048 52.5748M53.8052 53.2108A1 1 0 0 0 52.8052 52.2108A1 1 0 0 0 51.8052 53.2108A1 1 0 0 0 52.8052 54.2108A1 1 0 0 0 53.8052 53.2108M54.2051 54.028A1 1 0 0 0 53.2051 53.028A1 1 0 0 0 52.2051 54.028A1 1 0 0 0 53.2051 55.028A1 1 0 0 0 54.2051 54.028M54.8349 55.9267A1 1 0 0 0 53.8349 54.9267A1 1 0 0 0 52.8349 55.9267A1 1 0 0 0 53.8349 56.9267A1 1 0 0 0 54.8349 55.9267M55.1178 57.1934A1 1 0 0 0 54.1178 56.1934A1 1 0 0 0 53.1178 57.1934A1 1 0 0 0 54.1178 58.1934A1 1 0 0 0 55.1178 57.1934M55.3116 58.306A1 1 0 0 0 54.3116 57.306A1 1 0 0 0 53.3116 58.306A1 1 0 0 0 54.3116 59.306A1 1 0 0 0 55.3116 58.306M55.4406 59.2001A1 1 0 0 0 54.4406 58.2001A1 1 0 0 0 53.4406 59.2001A1 1 0 0 0 54.4406 60.2001A1 1 0 0 0 55.4406 59.2001M55.6411 60.9264A1 1 0 0 0 54.6411 59.9264A1 1 0 0 0 53.6411 60.9264A1 1 0 0 0 54.6411 61.9264A1 1 0 0 0 55.6411 60.9264M55.981 65.404A1 1 0 0 0 54.981 64.404A1 1 0 0 0 53.981 65.404A1 1 0 0 0 54.981 66.404A1 1 0 0 0 55.981 65.404M56.1661 69.3799A1 1 0 0 0 55.1661 68.3799A1 1 0 0 0 54.1661 69.3799A1 1 0 0 0 55.1661 70.3799A1 1 0 0 0 56.1661 69.3799M56.3305 74.7525A1 1 0 0 0 55.3305 73.7525A1 1 0 0 0 54.3305 74.7525A1 1 0 0 0 55.3305 75.7525A1 1 0 0 0 56.3305 74.7525M56.4127 78.5664A1 1 0 0 0 55.4127 77.5664A1 1 0 0 0 54.4127 78.5664A1 1 0 0 0 55.4127 79.5664A1 1 0 0 0 56.4127 78.5664M56.5751 90.4444A1 1 0 0 0 55.5751 89.4444A1 1 0 0 0 54.5751 90.4444A1 1 0 0 0 55.5751 91.4444A1 1 0 0 0 56.5751 90.4444M56.6408 98.2869A1 1 0 0 0 55.6408 97.2869A1 1 0 0 0 54.6408 98.2869A1 1 0 0 0 55.6408 99.2869A1 1 0 0 0 56.6408 98.2869M56.6878 105.941A1 1 0 0 0 55.6878 104.941A1 1 0 0 0 54.6878 105.941A1 1 0 0 0 55.6878 106.941A1 1 0 0 0 56.6878 105.941M56.7324 115.691A1 1 0 0 0 55.7324 114.691A1 1 0 0 0 54.7324 115.691A1 1 0 0 0 55.7324 116.691A1 1 0 0 0 56.7324 115.691M56.7617 124.072A1 1 0 0 0 55.7617 123.072A1 1 0 0 0 54.7617 124.072A1 1 0 0 0 55.7617 125.072A1 1 0 0 0 56.7617 124.072M56.7797 130.307A1 1 0 0 0 55.7797 129.307A1 1 0 0 0 54.7797 130.307A1 1 0 0 0 55.7797 131.307A1 1 0 0 0 56.7797 130.307M56.8086 142.802A1 1 0 0 0 55.8086 141.802A1 1 0 0 0 54.8086 142.802A1 1 0 0 0 55.8086 143.802A1 1 0 0 0 56.8086 142.802M56.8238 151.042A1 1 0 0 0 55.8238 150.042A1 1 0 0 0 54.8238 151.042A1 1 0 0 0 55.8238 152.042A1 1 0 0 0 56.8238 151.042M56.8396 161.235A1 1 0 0 0 55.8396 160.235A1 1 0 0 0 54.8396 161.235A1 1 0 0 0 55.8396 162.235A1 1 0 0 0 56.8396 161.235M56.8481 167.644A1 1 0 0 0 55.8481 166.644A1 1 0 0 0 54.8481 167.644A1 1 0 0 0 55.8481 168.644A1 1 0 0 0 56.8481 167.644M56.8526 171.297A1 1 0 0 0 55.8526 170.297A1 1 0 0 0 54.8526 171.297A1 1 0 0 0 55.8526 172.297A1 1 0 0 0 56.8526 171.297M56.8679 185.588A1 1 0 0 0 55.8679 184.588A1 1 0 0 0 54.8679 185.588A1 1 0 0 0 55.8679 186.588A1 1 0 0 0 56.8679 185.588M56.8751 193.527A1 1 0 0 0 55.8751 192.527A1 1 0 0 0 54.8751 193.527A1 1 0 0 0 55.8751 194.527A1 1 0 0 0 56.8751 193.527M56.879 198.262A1 1 0 0 0 55.879 197.262A1 1 0 0 0 54.879 198.262A1 1 0 0 0 55.879 199.262A1 1 0 0 0 56.879 198.262M56.8855 206.855A1 1 0 0 0 55.8855 205.855A1 1 0 0 0 54.8855 206.855A1 1 0 0 0 55.8855 207.855A1 1 0 0 0 56.8855 206.855M56.8882 210.706A1 1 0 0 0 55.8882 209.706A1 1 0 0 0 54.8882 210.706A1 1 0 0 0 55.8882 211.706A1 1 0 0 0 56.8882 210.706M56.894 219.583A1 1 0 0 0 55.894 218.583A1 1 0 0 0 54.894 219.583A1 1 0 0 0 55.894 220.583A1 1 0 0 0 56.894 219.583M56.8981 226.618A1 1 0 0 0 55.8981 225.618A1 1 0 0 0 54.8981 226.618A1 1 0 0 0 55.8981 227.618A1 1 0 0 0 56.8981 226.618M56.9074 244.561A1 1 0 0 0 55.9074 243.561A1 1 0 0 0 54.9074 244.561A1 1 0 0 0 55.9074 245.561A1 1 0 0 0 56.9074 244.561M56.91 250.273A1 1 0 0 0 55.91 249.273A1 1 0 0 0 54.91 250.273A1 1 0 0 0 55.91 251.273A1 1 0 0 0 56.91 250.273M56.9138 259.108A1 1 0 0 0 55.9138 258.108A1 1 0 0 0 54.9138 259.108A1 1 0 0 0 55.9138 260.108A1 1 0 0 0 56.9138 259.108M56.9161 265.087A1 1 0 0 0 55.9161 264.087A1 1 0 0 0 54.9161 265.087A1 1 0 0 0 55.9161 266.087A1 1 0 0 0 56.9161 265.087M56.9209 278.045A1 1 0 0 0 55.9209 277.045A1 1 0 0 0 54.9209 278.045A1 1 0 0 0 55.9209 279.045A1 1 0 0 0 56.9209 278.045M56.9228 283.787A1 1 0 0 0 55.9228 282.787A1 1 0 0 0 54.9228 283.787A1 1 0 0 0 55.9228 284.787A1 1 0 0 0 56.9228 283.787M56.9239 287.235A1 1 0 0 0 55.9239 286.235A1 1 0 0 0 54.9239 287.235A1 1 0 0 0 55.9239 288.235A1 1 0 0 0 56.9239 287.235M56.9271 297.832A1 1 0 0 0 55.9271 296.832A1 1 0 0 0 54.9271 297.832A1 1 0 0 0 55.9271 298.832A1 1 0 0 0 56.9271 297.832M56.9287 303.466A1 1 0 0 0 55.9287 302.466A1 1 0 0 0 54.9287 303.466A1 1 0 0 0 55.9287 304.466A1 1 0 0 0 56.9287 303.466M56.9309 311.716A1 1 0 0 0 55.9309 310.716A1 1 0 0 0 54.9309 311.716A1 1 0 0 0 55.9309 312.716A1 1 0 0 0 56.9309 311.716M56.935 328.263A1 1 0 0 0 55.935 327.263A1 1 0 0 0 54.935 328.263A1 1 0 0 0 55.935 329.263A1 1 0 0 0 56.935 328.263M56.9359 332.188A1 1 0 0 0 55.9359 331.188A1 1 0 0 0 54.9359 332.188A1 1 0 0 0 55.9359 333.188A1 1 0 0 0 56.9359 332.188M56.9377 340.462A1 1 0 0 0 55.9377 339.462A1 1 0 0 0 54.9377 340.462A1 1 0 0 0 55.9377 341.462A1 1 0 0 0 56.9377 340.462M56.9402 352.664A1 1 0 0 0 55.9402 351.664A1 1 0 0 0 54.9402 352.664A1 1 0 0 0 55.9402 353.664A1 1 0 0 0 56.9402 352.664M56.9416 359.68A1 1 0 0 0 55.9416 358.68A1 1 0 0 0 54.9416 359.68A1 1 0 0 0 55.9416 360.68A1 1 0 0 0 56.9416 359.68M56.9443 374.851A1 1 0 0 0 55.9443 373.851A1 1 0 0 0 54.9443 374.851A1 1 0 0 0 55.9443 375.851A1 1 0 0 0 56.9443 374.851M56.9455 382.299A1 1 0 0 0 55.9455 381.299A1 1 0 0 0 54.9455 382.299A1 1 0 0 0 55.9455 383.299A1 1 0 0 0 56.9455 382.299M56.9465 388.412A1 1 0 0 0 55.9465 387.412A1 1 0 0 0 54.9465 388.412A1 1 0 0 0 55.9465 389.412A1 1 0 0 0 56.9465 388.412M56.9473 393.51A1 1 0 0 0 55.9473 392.51A1 1 0 0 0 54.9473 393.51A1 1 0 0 0 55.9473 394.51A1 1 0 0 0 56.9473 393.51M56.9482 399.916A1 1 0 0 0 55.9482 398.916A1 1 0 0 0 54.9482 399.916A1 1 0 0 0 55.9482 400.916A1 1 0 0 0 56.9482 399.916M56.9495 408.942A1 1 0 0 0 55.9495 407.942A1 1 0 0 0 54.9495 408.942A1 1 0 0 0 55.9495 409.942A1 1 0 0 0 56.9495 408.942M56.9506 416.902A1 1 0 0 0 55.9506 415.902A1 1 0 0 0 54.9506 416.902A1 1 0 0 0 55.9506 417.902A1 1 0 0 0 56.9506 416.902M56.952 427.286A1 1 0 0 0 55.952 426.286A1 1 0 0 0 54.952 427.286A1 1 0 0 0 55.952 428.286A1 1 0 0 0 56.952 427.286M56.9524 431.185A1 1 0 0 0 55.9524 430.185A1 1 0 0 0 54.9524 431.185A1 1 0 0 0 55.9524 432.185A1 1 0 0 0 56.9524 431.185M56.9535 440.105A1 1 0 0 0 55.9535 439.105A1 1 0 0 0 54.9535 440.105A1 1 0 0 0 55.9535 441.105A1 1 0 0 0 56.9535 440.105M56.9545 448.275A1 1 0 0 0 55.9545 447.275A1 1 0 0 0 54.9545 448.275A1 1 0 0 0 55.9545 449.275A1 1 0 0 0 56.9545 448.275M56.9559 460.83A1 1 0 0 0 55.9559 459.83A1 1 0 0 0 54.9559 460.83A1 1 0 0 0 55.9559 461.83A1 1 0 0 0 56.9559 460.83M56.9565 466.791A1 1 0 0 0 55.9565 465.791A1 1 0 0 0 54.9565 466.791A1 1 0 0 0 55.9565 467.791A1 1 0 0 0 56.9565 466.791M56.9569 470.647A1 1 0 0 0 55.9569 469.647A1 1 0 0 0 54.9569 470.647A1 1 0 0 0 55.9569 471.647A1 1 0 0 0 56.9569 470.647M56.9577 479.123A1 1 0 0 0 55.9577 478.123A1 1 0 0 0 54.9577 479.123A1 1 0 0 0 55.9577 480.123A1 1 0 0 0 56.9577 479.123M56.9585 486.758A1 1 0 0 0 55.9585 485.758A1 1 0 0 0 54.9585 486.758A1 1 0 0 0 55.9585 487.758A1 1 0 0 0 56.9585 486.758M56.9592 494.394A1 1 0 0 0 55.9592 493.394A1 1 0 0 0 54.9592 494.394A1 1 0 0 0 55.9592 495.394A1 1 0 0 0 56.9592 494.394M56.9595 498.416A1 1 0 0 0 55.9595 497.416A1 1 0 0 0 54.9595 498.416A1 1 0 0 0 55.9595 499.416A1 1 0 0 0 56.9595 498.416M56.9605 509.69A1 1 0 0 0 55.9605 508.69A1 1 0 0 0 54.9605 509.69A1 1 0 0 0 55.9605 510.69A1 1 0 0 0 56.9605 509.69M56.9611 516.229A1 1 0 0 0 55.9611 515.229A1 1 0 0 0 54.9611 516.229A1 1 0 0 0 55.9611 517.229A1 1 0 0 0 56.9611 516.229M56.9616 522.535A1 1 0 0 0 55.9616 521.535A1 1 0 0 0 54.9616 522.535A1 1 0 0 0 55.9616 523.535A1 1 0 0 0 56.9616 522.535M56.9618 525.667A1 1 0 0 0 55.9618 524.667A1 1 0 0 0 54.9618 525.667A1 1 0 0 0 55.9618 526.667A1 1 0 0 0 56.9618 525.667M56.9626 535.091A1 1 0 0 0 55.9626 534.091A1 1 0 0 0 54.9626 535.091A1 1 0 0 0 55.9626 536.091A1 1 0 0 0 56.9626 535.091M56.9634 545.53A1 1 0 0 0 55.9634 544.53A1 1 0 0 0 54.9634 545.53A1 1 0 0 0 55.9634 546.53A1 1 0 0 0 56.9634 545.53M56.9638 551.03A1 1 0 0 0 55.9638 550.03A1 1 0 0 0 54.9638 551.03A1 1 0 0 0 55.9638 552.03A1 1 0 0 0 56.9638 551.03M56.9645 561.257A1 1 0 0 0 55.9645 560.257A1 1 0 0 0 54.9645 561.257A1 1 0 0 0 55.9645 562.257A1 1 0 0 0 56.9645 561.257M56.965 569.478A1 1 0 0 0 55.965 568.478A1 1 0 0 0 54.965 569.478A1 1 0 0 0 55.965 570.478A1 1 0 0 0 56.965 569.478M56.9654 574.502A1 1 0 0 0 55.9654 573.502A1 1 0 0 0 54.9654 574.502A1 1 0 0 0 55.9654 575.502A1 1 0 0 0 56.9654 574.502M56.9664 590.835A1 1 0 0 0 55.9664 589.835A1 1 0 0 0 54.9664 590.835A1 1 0 0 0 55.9664 591.835A1 1 0 0 0 56.9664 590.835M56.9669 598.163A1 1 0 0 0 55.9669 597.163A1 1 0 0 0 54.9669 598.163A1 1 0 0 0 55.9669 599.163A1 1 0 0 0 56.9669 598.163M56.9673 604.96A1 1 0 0 0 55.9673 603.96A1 1 0 0 0 54.9673 604.96A1 1 0 0 0 55.9673 605.96A1 1 0 0 0 56.9673 604.96M56.9679 615.48A1 1 0 0 0 55.9679 614.48A1 1 0 0 0 54.9679 615.48A1 1 0 0 0 55.9679 616.48A1 1 0 0 0 56.9679 615.48M56.9704 663.859A1 1 0 0 0 55.9704 662.859A1 1 0 0 0 54.9704 663.859A1 1 0 0 0 55.9704 664.859A1 1 0 0 0 56.9704 663.859M56.9717 691.278A1 1 0 0 0 55.9717 690.278A1 1 0 0 0 54.9717 691.278A1 1 0 0 0 55.9717 692.278A1 1 0 0 0 56.9717 691.278M56.9723 706.485A1 1 0 0 0 55.9723 705.485A1 1 0 0 0 54.9723 706.485A1 1 0 0 0 55.9723 707.485A1 1 0 0 0 56.9723 706.485M56.9727 715.001A1 1 0 0 0 55.9727 714.001A1 1 0 0 0 54.9727 715.001A1 1 0 0 0 55.9727 716.001A1 1 0 0 0 56.9727 715.001M56.9748 771.929A1 1 0 0 0 55.9748 770.929A1 1 0 0 0 54.9748 771.929A1 1 0 0 0 55.9748 772.929A1 1 0 0 0 56.9748 771.929M56.9773 851.001A1 1 0 0 0 55.9773 850.001A1 1 0 0 0 54.9773 851.001A1 1 0 0 0 55.9773 852.001A1 1 0 0 0 56.9773 851.001M56.9789 914.137A1 1 0 0 0 55.9789 913.137A1 1 0 0 0 54.9789 914.137A1 1 0 0 0 55.9789 915.137A1 1 0 0 0 56.9789 914.137M56.9803 972.563A1 1 0 0 0 55.9803 971.563A1 1 0 0 0 54.9803 972.563A1 1 0 0 0 55.9803 973.563A1 1 0 0 0 56.9803 972.563M56.9809 1003.93A1 1 0 0 0 55.9809 1002.93A1 1 0 0 0 54.9809 1003.93A1 1 0 0 0 55.9809 1004.93A1 1 0 0 0 56.9809 1003.93M56.9823 1077.43A1 1 0 0 0 55.9823 1076.43A1 1 0 0 0 54.9823 1077.43A1 1 0 0 0 55.9823 1078.43A1 1 0 0 0 56.9823 1077.43M56.985 1264.04A1 1 0 0 0 55.985 1263.04A1 1 0 0 0 54.985 1264.04A1 1 0 0 0 55.985 1265.04A1 1 0 0 0 56.985 1264.04M56.9865 1395.98A1 1 0 0 0 55.9865 1394.98A1 1 0 0 0 54.9865 1395.98A1 1 0 0 0 55.9865 1396.98A1 1 0 0 0 56.9865 1395.98M56.9889 1684.84A1 1 0 0 0 55.9889 1683.84A1 1 0 0 0 54.9889 1684.84A1 1 0 0 0 55.9889 1685.84A1 1 0 0 0 56.9889 1684.84M56.9914 2157.77A1 1 0 0 0 55.9914 2156.77A1 1 0 0 0 54.9914 2157.77A1 1 0 0 0 55.9914 2158.77A1 1 0 0 0 56.9914 2157.77M56.9933 2759.73A1 1 0 0 0 55.9933 2758.73A1 1 0 0 0 54.9933 2759.73A1 1 0 0 0 55.9933 2760.73A1 1 0 0 0 56.9933 2759.73M56.9969 5906.38A1 1 0 0 0 55.9969 5905.38A1 1 0 0 0 54.9969 5906.38A1 1 0 0 0 55.9969 5907.38A1 1 0 0 0 56.9969 5906.38M56.9989 17159.7A1 1 0 0 0 55.9989 17158.7A1 1 0 0 0 54.9989 17159.7A1 1 0 0 0 55.9989 17160.7A1 1 0 0 0 56.9989 17159.7M57.0033 -5492.48A1 1 0 0 0 56.0033 -5493.48A1 1 0 0 0 55.0033 -5492.48A1 1 0 0 0 56.0033 -5491.48A1 1 0 0 0 57.0033 -5492.48M57.0103 -1722.12A1 1 0 0 0 56.0103 -1723.12A1 1 0 0 0 55.0103 -1722.12A1 1 0 0 0 56.0103 -1721.12A1 1 0 0 0 57.0103 -1722.12M57.0127 -1385.19A1 1 0 0 0 56.0127 -1386.19A1 1 0 0 0 55.0127 -1385.19A1 1 0 0 0 56.0127 -1384.19A1 1 0 0 0 57.0127 -1385.19M57.0158 -1106.31A1 1 0 0 0 56.0158 -1107.31A1 1 0 0 0 55.0158 -1106.31A1 1 0 0 0 56.0158 -1105.31A1 1 0 0 0 57.0158 -1106.31M57.0185 -940.139A1 1 0 0 0 56.0185 -941.139A1 1 0 0 0 55.0185 -940.139A1 1 0 0 0 56.0185 -939.139A1 1 0 0 0 57.0185 -940.139M57.0226 -760.911A1 1 0 0 0 56.0226 -761.911A1 1 0 0 0 55.0226 -760.911A1 1 0 0 0 56.0226 -759.911A1 1 0 0 0 57.0226 -760.911M57.0243 -704.837A1 1 0 0 0 56.0243 -705.837A1 1 0 0 0 55.0243 -704.837A1 1 0 0 0 56.0243 -703.837A1 1 0 0 0 57.0243 -704.837M57.0255 -667.732A1 1 0 0 0 56.0255 -668.732A1 1 0 0 0 55.0255 -667.732A1 1 0 0 0 56.0255 -666.732A1 1 0 0 0 57.0255 -667.732M57.0278 -608.748A1 1 0 0 0 56.0278 -609.748A1 1 0 0 0 55.0278 -608.748A1 1 0 0 0 56.0278 -607.748A1 1 0 0 0 57.0278 -608.748M57.0291 -579.854A1 1 0 0 0 56.0291 -580.854A1 1 0 0 0 55.0291 -579.854A1 1 0 0 0 56.0291 -578.854A1 1 0 0 0 57.0291 -579.854M57.0306 -548.651A1 1 0 0 0 56.0306 -549.651A1 1 0 0 0 55.0306 -548.651A1 1 0 0 0 56.0306 -547.651A1 1 0 0 0 57.0306 -548.651M57.031 -541.607A1 1 0 0 0 56.031 -542.607A1 1 0 0 0 55.031 -541.607A1 1 0 0 0 56.031 -540.607A1 1 0 0 0 57.031 -541.607M57.0313 -535.86A1 1 0 0 0 56.0313 -536.86A1 1 0 0 0 55.0313 -535.86A1 1 0 0 0 56.0313 -534.86A1 1 0 0 0 57.0313 -535.86M57.0335 -496.983A1 1 0 0 0 56.0335 -497.983A1 1 0 0 0 55.0335 -496.983A1 1 0 0 0 56.0335 -495.983A1 1 0 0 0 57.0335 -496.983M57.0358 -462.717A1 1 0 0 0 56.0358 -463.717A1 1 0 0 0 55.0358 -462.717A1 1 0 0 0 56.0358 -461.717A1 1 0 0 0 57.0358 -462.717M57.0381 -431.862A1 1 0 0 0 56.0381 -432.862A1 1 0 0 0 55.0381 -431.862A1 1 0 0 0 56.0381 -430.862A1 1 0 0 0 57.0381 -431.862M57.0386 -424.906A1 1 0 0 0 56.0386 -425.906A1 1 0 0 0 55.0386 -424.906A1 1 0 0 0 56.0386 -423.906A1 1 0 0 0 57.0386 -424.906M57.0391 -419.083A1 1 0 0 0 56.0391 -420.083A1 1 0 0 0 55.0391 -419.083A1 1 0 0 0 56.0391 -418.083A1 1 0 0 0 57.0391 -419.083M57.0399 -409.67A1 1 0 0 0 56.0399 -410.67A1 1 0 0 0 55.0399 -409.67A1 1 0 0 0 56.0399 -408.67A1 1 0 0 0 57.0399 -409.67M57.0405 -402.92A1 1 0 0 0 56.0405 -403.92A1 1 0 0 0 55.0405 -402.92A1 1 0 0 0 56.0405 -401.92A1 1 0 0 0 57.0405 -402.92M57.0413 -394.144A1 1 0 0 0 56.0413 -395.144A1 1 0 0 0 55.0413 -394.144A1 1 0 0 0 56.0413 -393.144A1 1 0 0 0 57.0413 -394.144M57.0419 -387.488A1 1 0 0 0 56.0419 -388.488A1 1 0 0 0 55.0419 -387.488A1 1 0 0 0 56.0419 -386.488A1 1 0 0 0 57.0419 -387.488M57.0456 -352.716A1 1 0 0 0 56.0456 -353.716A1 1 0 0 0 55.0456 -352.716A1 1 0 0 0 56.0456 -351.716A1 1 0 0 0 57.0456 -352.716M57.0494 -321.728A1 1 0 0 0 56.0494 -322.728A1 1 0 0 0 55.0494 -321.728A1 1 0 0 0 56.0494 -320.728A1 1 0 0 0 57.0494 -321.728M57.0507 -312.473A1 1 0 0 0 56.0507 -313.473A1 1 0 0 0 55.0507 -312.473A1 1 0 0 0 56.0507 -311.473A1 1 0 0 0 57.0507 -312.473M57.0522 -301.763A1 1 0 0 0 56.0522 -302.763A1 1 0 0 0 55.0522 -301.763A1 1 0 0 0 56.0522 -300.763A1 1 0 0 0 57.0522 -301.763M57.0569 -272.981A1 1 0 0 0 56.0569 -273.981A1 1 0 0 0 55.0569 -272.981A1 1 0 0 0 56.0569 -271.981A1 1 0 0 0 57.0569 -272.981M57.0593 -260.321A1 1 0 0 0 56.0593 -261.321A1 1 0 0 0 55.0593 -260.321A1 1 0 0 0 56.0593 -259.321A1 1 0 0 0 57.0593 -260.321M57.0605 -254.29A1 1 0 0 0 56.0605 -255.29A1 1 0 0 0 55.0605 -254.29A1 1 0 0 0 56.0605 -253.29A1 1 0 0 0 57.0605 -254.29M57.0633 -240.76A1 1 0 0 0 56.0633 -241.76A1 1 0 0 0 55.0633 -240.76A1 1 0 0 0 56.0633 -239.76A1 1 0 0 0 57.0633 -240.76M57.0647 -234.28A1 1 0 0 0 56.0647 -235.28A1 1 0 0 0 55.0647 -234.28A1 1 0 0 0 56.0647 -233.28A1 1 0 0 0 57.0647 -234.28M57.0691 -216.545A1 1 0 0 0 56.0691 -217.545A1 1 0 0 0 55.0691 -216.545A1 1 0 0 0 56.0691 -215.545A1 1 0 0 0 57.0691 -216.545M57.071 -209.294A1 1 0 0 0 56.071 -210.294A1 1 0 0 0 55.071 -209.294A1 1 0 0 0 56.071 -208.294A1 1 0 0 0 57.071 -209.294M57.0747 -196.767A1 1 0 0 0 56.0747 -197.767A1 1 0 0 0 55.0747 -196.767A1 1 0 0 0 56.0747 -195.767A1 1 0 0 0 57.0747 -196.767M57.0777 -187.186A1 1 0 0 0 56.0777 -188.186A1 1 0 0 0 55.0777 -187.186A1 1 0 0 0 56.0777 -186.186A1 1 0 0 0 57.0777 -187.186M57.0806 -178.962A1 1 0 0 0 56.0806 -179.962A1 1 0 0 0 55.0806 -178.962A1 1 0 0 0 56.0806 -177.962A1 1 0 0 0 57.0806 -178.962M57.0838 -170.336A1 1 0 0 0 56.0838 -171.336A1 1 0 0 0 55.0838 -170.336A1 1 0 0 0 56.0838 -169.336A1 1 0 0 0 57.0838 -170.336M57.0873 -161.563A1 1 0 0 0 56.0873 -162.563A1 1 0 0 0 55.0873 -161.563A1 1 0 0 0 56.0873 -160.563A1 1 0 0 0 57.0873 -161.563M57.0898 -155.633A1 1 0 0 0 56.0898 -156.633A1 1 0 0 0 55.0898 -155.633A1 1 0 0 0 56.0898 -154.633A1 1 0 0 0 57.0898 -155.633M57.0932 -148.298A1 1 0 0 0 56.0932 -149.298A1 1 0 0 0 55.0932 -148.298A1 1 0 0 0 56.0932 -147.298A1 1 0 0 0 57.0932 -148.298M57.0995 -135.817A1 1 0 0 0 56.0995 -136.817A1 1 0 0 0 55.0995 -135.817A1 1 0 0 0 56.0995 -134.817A1 1 0 0 0 57.0995 -135.817M57.1028 -129.926A1 1 0 0 0 56.1028 -130.926A1 1 0 0 0 55.1028 -129.926A1 1 0 0 0 56.1028 -128.926A1 1 0 0 0 57.1028 -129.926M57.109 -119.953A1 1 0 0 0 56.109 -120.953A1 1 0 0 0 55.109 -119.953A1 1 0 0 0 56.109 -118.953A1 1 0 0 0 57.109 -119.953M57.1148 -111.408A1 1 0 0 0 56.1148 -112.408A1 1 0 0 0 55.1148 -111.408A1 1 0 0 0 56.1148 -110.408A1 1 0 0 0 57.1148 -111.408M57.1276 -95.4684A1 1 0 0 0 56.1276 -96.4684A1 1 0 0 0 55.1276 -95.4684A1 1 0 0 0 56.1276 -94.4684A1 1 0 0 0 57.1276 -95.4684M57.1396 -83.1606A1 1 0 0 0 56.1396 -84.1606A1 1 0 0 0 55.1396 -83.1606A1 1 0 0 0 56.1396 -82.1606A1 1 0 0 0 57.1396 -83.1606M57.1535 -71.3304A1 1 0 0 0 56.1535 -72.3304A1 1 0 0 0 55.1535 -71.3304A1 1 0 0 0 56.1535 -70.3304A1 1 0 0 0 57.1535 -71.3304M57.172 -58.5545A1 1 0 0 0 56.172 -59.5545A1 1 0 0 0 55.172 -58.5545A1 1 0 0 0 56.172 -57.5545A1 1 0 0 0 57.172 -58.5545M57.1886 -49.2613A1 1 0 0 0 56.1886 -50.2613A1 1 0 0 0 55.1886 -49.2613A1 1 0 0 0 56.1886 -48.2613A1 1 0 0 0 57.1886 -49.2613M57.2035 -42.1581A1 1 0 0 0 56.2035 -43.1581A1 1 0 0 0 55.2035 -42.1581A1 1 0 0 0 56.2035 -41.1581A1 1 0 0 0 57.2035 -42.1581M57.2102 -39.2981A1 1 0 0 0 56.2102 -40.2981A1 1 0 0 0 55.2102 -39.2981A1 1 0 0 0 56.2102 -38.2981A1 1 0 0 0 57.2102 -39.2981M57.2498 -25.5507A1 1 0 0 0 56.2498 -26.5507A1 1 0 0 0 55.2498 -25.5507A1 1 0 0 0 56.2498 -24.5507A1 1 0 0 0 57.2498 -25.5507M57.2832 -16.9238A1 1 0 0 0 56.2832 -17.9238A1 1 0 0 0 55.2832 -16.9238A1 1 0 0 0 56.2832 -15.9238A1 1 0 0 0 57.2832 -16.9238M57.3207 -9.38778A1 1 0 0 0 56.3207 -10.3878A1 1 0 0 0 55.3207 -9.38778A1 1 0 0 0 56.3207 -8.38778A1 1 0 0 0 57.3207 -9.38778M57.4026 2.1876A1 1 0 0 0 56.4026 1.1876A1 1 0 0 0 55.4026 2.1876A1 1 0 0 0 56.4026 3.1876A1 1 0 0 0 57.4026 2.1876M57.435 5.55418A1 1 0 0 0 56.435 4.55418A1 1 0 0 0 55.435 5.55418A1 1 0 0 0 56.435 6.55418A1 1 0 0 0 57.435 5.55418M57.4825 9.68471A1 1 0 0 0 56.4825 8.68471A1 1 0 0 0 55.4825 9.68471A1 1 0 0 0 56.4825 10.6847A1 1 0 0 0 57.4825 9.68471M57.5402 13.7266A1 1 0 0 0 56.5402 12.7266A1 1 0 0 0 55.5402 13.7266A1 1 0 0 0 56.5402 14.7266A1 1 0 0 0 57.5402 13.7266M57.668 20.1876A1 1 0 0 0 56.668 19.1876A1 1 0 0 0 55.668 20.1876A1 1 0 0 0 56.668 21.1876A1 1 0 0 0 57.668 20.1876M57.8502 26.0403A1 1 0 0 0 56.8502 25.0403A1 1 0 0 0 55.8502 26.0403A1 1 0 0 0 56.8502 27.0403A1 1 0 0 0 57.8502 26.0403M57.9716 28.7215A1 1 0 0 0 56.9716 27.7215A1 1 0 0 0 55.9716 28.7215A1 1 0 0 0 56.9716 29.7215A1 1 0 0 0 57.9716 28.7215M58.1307 31.3643A1 1 0 0 0 57.1307 30.3643A1 1 0 0 0 56.1307 31.3643A1 1 0 0 0 57.1307 32.3643A1 1 0 0 0 58.1307 31.3643M58.385 34.3267A1 1 0 0 0 57.385 33.3267A1 1 0 0 0 56.385 34.3267A1 1 0 0 0 57.385 35.3267A1 1 0 0 0 58.385 34.3267M58.7893 37.303A1 1 0 0 0 57.7893 36.303A1 1 0 0 0 56.7893 37.303A1 1 0 0 0 57.7893 38.303A1 1 0 0 0 58.7893 37.303M59.0339 38.5296A1 1 0 0 0 58.0339 37.5296A1 1 0 0 0 57.0339 38.5296A1 1 0 0 0 58.0339 39.5296A1 1 0 0 0 59.0339 38.5296M59.6309 40.565A1 1 0 0 0 58.6309 39.565A1 1 0 0 0 57.6309 40.565A1 1 0 0 0 58.6309 41.565A1 1 0 0 0 59.6309 40.565M59.8913 41.1896A1 1 0 0 0 58.8913 40.1896A1 1 0 0 0 57.8913 41.1896A1 1 0 0 0 58.8913 42.1896A1 1 0 0 0 59.8913 41.1896M60.2498 41.8859A1 1 0 0 0 59.2498 40.8859A1 1 0 0 0 58.2498 41.8859A1 1 0 0 0 59.2498 42.8859A1 1 0 0 0 60.2498 41.8859M60.4431 42.201A1 1 0 0 0 59.4431 41.201A1 1 0 0 0 58.4431 42.201A1 1 0 0 0 59.4431 43.201A1 1 0 0 0 60.4431 42.201M60.9371 42.8659A1 1 0 0 0 59.9371 41.8659A1 1 0 0 0 58.9371 42.8659A1 1 0 0 0 59.9371 43.8659A1 1 0 0 0 60.9371 42.8659M61.6847 43.6054A1 1 0 0 0 60.6847 42.6054A1 1 0 0 0 59.6847 43.6054A1 1 0 0 0 60.6847 44.6054A1 1 0 0 0 61.6847 43.6054M62.9098 44.4128A1 1 0 0 0 61.9098 43.4128A1 1 0 0 0 60.9098 44.4128A1 1 0 0 0 61.9098 45.4128A1 1 0 0 0 62.9098 44.4128M63.7069 44.7797A1 1 0 0 0 62.7069 43.7797A1 1 0 0 0 61.7069 44.7797A1 1 0 0 0 62.7069 45.7797A1 1 0 0 0 63.7069 44.7797M64.5766 45.0919A1 1 0 0 0 63.5766 44.0919A1 1 0 0 0 62.5766 45.0919A1 1 0 0 0 63.5766 46.0919A1 1 0 0 0 64.5766 45.0919M65.2488 45.2882A1 1 0 0 0 64.2488 44.2882A1 1 0 0 0 63.2488 45.2882A1 1 0 0 0 64.2488 46.2882A1 1 0 0 0 65.2488 45.2882M66.5731 45.5941A1 1 0 0 0 65.5731 44.5941A1 1 0 0 0 64.5731 45.5941A1 1 0 0 0 65.5731 46.5941A1 1 0 0 0 66.5731 45.5941M67.3769 45.7418A1 1 0 0 0 66.3769 44.7418A1 1 0 0 0 65.3769 45.7418A1 1 0 0 0 66.3769 46.7418A1 1 0 0 0 67.3769 45.7418M70.3208 46.1303A1 1 0 0 0 69.3208 45.1303A1 1 0 0 0 68.3208 46.1303A1 1 0 0 0 69.3208 47.1303A1 1 0 0 0 70.3208 46.1303M73.1868 46.3728A1 1 0 0 0 72.1868 45.3728A1 1 0 0 0 71.1868 46.3728A1 1 0 0 0 72.1868 47.3728A1 1 0 0 0 73.1868 46.3728M79.6595 46.6948A1 1 0 0 0 78.6595 45.6948A1 1 0 0 0 77.6595 46.6948A1 1 0 0 0 78.6595 47.6948A1 1 0 0 0 79.6595 46.6948M83.8492 46.8205A1 1 0 0 0 82.8492 45.8205A1 1 0 0 0 81.8492 46.8205A1 1 0 0 0 82.8492 47.8205A1 1 0 0 0 83.8492 46.8205M87.6952 46.9056A1 1 0 0 0 86.6952 45.9056A1 1 0 0 0 85.6952 46.9056A1 1 0 0 0 86.6952 47.9056A1 1 0 0 0 87.6952 46.9056M93.0051 46.9933A1 1 0 0 0 92.0051 45.9933A1 1 0 0 0 91.0051 46.9933A1 1 0 0 0 92.0051 47.9933A1 1 0 0 0 93.0051 46.9933M95.3038 47.0237A1 1 0 0 0 94.3038 46.0237A1 1 0 0 0 93.3038 47.0237A1 1 0 0 0 94.3038 48.0237A1 1 0 0 0 95.3038 47.0237M98 47.055A1 1 0 0 0 97 46.055A1 1 0 0 0 96 47.055A1 1 0 0 0 97 48.055A1 1 0 0 0 98 47.055" fill="blue" />

</g>

<path id="xticks429" d="M15 92L97 92M56 92L56 90M64.2 92L64.2 90M72.4 92L72.4 90M80.6 92L80.6 90M88.8 92L88.8 90M23.2 92L23.2 90M31.4 92L31.4 90M39.6 92L39.6 90M47.8 92L47.8 90M19.1 92L19.1 91M27.3 92L27.3 91M35.5 92L35.5 91M43.7 92L43.7 91M51.9 92L51.9 91M60.1 92L60.1 91M68.3 92L68.3 91M76.5 92L76.5 91M84.7 92L84.7 91M92.9 92L92.9 91M97 92L97 92" />

<g stroke="none" id="xticklabels429" fill="black">

<text y="98.0" x="56.0">0</text>

<text y="98.0" x="64.2">2</text>

<text y="98.0" x="72.4">4</text>

<text y="98.0" x="80.6">6</text>

<text y="98.0" x="88.8">8</text>

<text y="98.0" x="97.0">10</text>

<text y="98.0" x="15.0">–10</text>

<text y="98.0" x="23.2">–8</text>

<text y="98.0" x="31.4">–6</text>

<text y="98.0" x="39.6">–4</text>

<text y="98.0" x="47.8">–2</text>

</g>

<path id="yticks429" d="M15 92L15 3M15 47.5L17 47.5M15 38.6L17 38.6M15 29.7L17 29.7M15 20.8L17 20.8M15 11.9L17 11.9M15 83.1L17 83.1M15 74.2L17 74.2M15 65.3L17 65.3M15 56.4L17 56.4M15 87.55L16 87.55M15 78.65L16 78.65M15 69.75L16 69.75M15 60.85L16 60.85M15 51.95L16 51.95M15 43.05L16 43.05M15 34.15L16 34.15M15 25.25L16 25.25M15 16.35L16 16.35M15 7.45L16 7.45M15 3.00001L15 3" />

<g stroke="none" id="yticklabels429" text-anchor="end" fill="black">

<text y="49.25" x="14.0">0</text>

<text y="40.35" x="14.0">2</text>

<text y="31.45" x="14.0">4</text>

<text y="22.55" x="14.0">6</text>

<text y="13.65" x="14.0">8</text>

<text y="4.75" x="14.0">10</text>

<text y="93.75" x="14.0">–10</text>

<text y="84.85" x="14.0">–8</text>

<text y="75.95" x="14.0">–6</text>

<text y="67.05" x="14.0">–4</text>

<text y="58.15" x="14.0">–2</text>

</g>

<path id="rightticks429" d="M97 92L97 3M97 47.5L95 47.5M97 38.6L95 38.6M97 29.7L95 29.7M97 20.8L95 20.8M97 11.9L95 11.9M97 83.1L95 83.1M97 74.2L95 74.2M97 65.3L95 65.3M97 56.4L95 56.4M97 87.55L96 87.55M97 78.65L96 78.65M97 69.75L96 69.75M97 60.85L96 60.85M97 51.95L96 51.95M97 43.05L96 43.05M97 34.15L96 34.15M97 25.25L96 25.25M97 16.35L96 16.35M97 7.45L96 7.45M97 3.00001L97 3" />

<g stroke="none" id="rightticklabels429" text-anchor="start" fill="black" />

<path id="topticks429" d="M15 3L97 3M56 3L56 5M64.2 3L64.2 5M72.4 3L72.4 5M80.6 3L80.6 5M88.8 3L88.8 5M23.2 3L23.2 5M31.4 3L31.4 5M39.6 3L39.6 5M47.8 3L47.8 5M19.1 3L19.1 4M27.3 3L27.3 4M35.5 3L35.5 4M43.7 3L43.7 4M51.9 3L51.9 4M60.1 3L60.1 4M68.3 3L68.3 4M76.5 3L76.5 4M84.7 3L84.7 4M92.9 3L92.9 4M97 3L97 3" />

<g stroke="none" id="topticklabels429" fill="black" />

</g>

</svg>

