<?xml version="1.0" standalone="no"?>
<!DOCTYPE svg PUBLIC "-//W3C//DTD SVG 1.1//EN" "http://www.w3.org/Graphics/SVG/1.1/DTD/svg11.dtd">

<svg style="stroke:black; fill:none; stroke-width:0.25pt; stroke-linejoin:round; font-size:5; text-anchor:middle" xmlns="http://www.w3.org/2000/svg" font-family="Helvetica,Arial,FreeSans,Sans,sans,sans-serif" height="400px" width="400px" version="1.1" xmlns:xlink="http://www.w3.org/1999/xlink" viewBox="0 0 100 100">

<g font-size="5" id="frame687">

<clipPath id="clippath687">

<path d="M 15 3 L 87 3 L 87 92 L 15 92 Z" />

</clipPath>

<rect width="72.0" stroke="none" y="3.0" x="15.0" fill="none" id="background687" height="89.0" />

<g id="data687" clip-path="url(#clippath687)">

<path stroke="green" stroke-width="0.5pt" d="M15 22.6161L15.3296 23.0033L15.5155 23.3533L15.7948 24.0678L16.0808 25.0521L16.4549 26.778L16.742 28.5L16.9082 29.6853L17.2498 32.6613L17.4378 34.6893L17.8268 40.1857L18.1369 46.6583L18.3284 52.469L18.4342 56.7974L18.602 67.1199L18.6615 72.9731L18.7617 92.0183L18.7809 100.191L18.7926 108.021L18.802 118.5L18.8076 130.098M18.8327 965L18.8808 965L18.9831 965L19.0991 965L19.172 965L19.3718 965L19.4557 965L19.6482 965L19.8728 965L20.4332 965L21.214 965L22.0016 965L22.4341 965L23.438 965L24.0031 965L25.0189 965L26.2106 965L26.6133 965L26.8367 965L26.8778 965L26.9566 965L26.968 965L26.9824 965L26.9897 965L26.9938 965L26.9958 965L26.9981 965L26.9989 965L26.9998 965M27.0001 204.483M27.0005 172.969L27.001 162.887L27.0017 153.26L27.0032 141.76L27.005 133.468L27.0076 126.114L27.0119 118.297L27.0217 107.562L27.0355 98.8093L27.0698 86.8016L27.1078 79.0886L27.1685 71.1646L27.2105 67.2249L27.3837 56.6017L27.6942 46.218L28.268 36.014L28.5023 33.2906L29.239 27.4503L29.5574 25.7954L29.8745 24.5315L30.2538 23.4517L30.6662 22.7533L30.8881 22.5688L31.0938 22.5138L31.3261 22.5849L31.435 22.6671L31.5742 22.8183L31.9171 23.4171L32.1685 24.0715L32.383 24.7853L32.612 25.7196L33.0983 28.3919L33.4865 31.381L33.6128 32.5666L33.8749 35.4668L34.2884 41.7917L34.4628 45.5027L34.6421 50.4646L34.9784 67.4461L35.0085 70.2164L35.0679 77.4312L35.0909 81.2803L35.1251 89.1459L35.1441 95.7467L35.1709 113.669L35.1748 118.961L35.1795 128.276L35.1809 132.534L35.183 141.227L35.184 147.592L35.1849 156.595L35.1854 164.795L35.1859 178.661L35.186 184.841L35.1861 194.525M35.1862 224.048M35.1864 965L35.1865 965L35.1866 965L35.1867 965L35.187 965L35.1879 965L35.1885 965L35.1913 965L35.1971 965L35.2037 965L35.2095 965L35.2329 965L35.2612 965L35.3231 965L35.418 965L36.3939 965L37.1404 965L38.0773 965L38.8678 965L40.5618 965L41.5335 965L42.4055 965L42.8919 965L42.9824 965L43.1774 965L43.2277 965L43.3325 965L43.3415 965L43.352 965L43.3585 965L43.3633 965L43.3653 965L43.3695 965L43.3711 965L43.372 965L43.3721 965L43.3722 965L43.3724 965L43.3725 965L43.3725 965L43.3725 965L43.3725 965L43.3725 965M43.3725 283.192L43.3725 275.858L43.3725 266.558L43.3725 262.36L43.3725 257.618L43.3725 246.107L43.3725 236.729L43.3725 232.399L43.3725 228.563L43.3726 214.775L43.3726 204.044L43.3726 200.65L43.3727 196.924L43.3727 189.433L43.3729 180.741L43.373 174.085L43.3731 170.675L43.3736 160.968L43.3739 156.096L43.3747 147.955L43.3754 143.586L43.3759 140.343L43.3764 138.062L43.3775 133.744L43.3781 131.553L43.3809 124.385L43.3836 119.554L43.402 102.146L43.4114 97.1997L43.4869 78.0375L43.525 72.9369L43.5626 69.0311L43.6188 64.4383L43.82 53.895L43.9647 48.9847L44.1182 44.9803L44.2784 41.6408L44.5256 37.5788L44.9214 32.8121L45.3084 29.4569L45.6754 27.0841L45.8999 25.934L46.0788 25.158L46.3088 24.3249L46.7161 23.259L46.872 22.9788L47.128 22.6633L47.2551 22.5718L47.4945 22.5149L47.66 22.5632L48.0013 22.8918L48.2664 23.3661L48.7836 24.8898L49.0701 26.118L49.2596 27.1047L49.5668 29.0498L50.0864 33.6093L50.3356 36.6037L50.5131 39.2119L50.8391 45.5951L51.0195 50.6193L51.2146 58.5239L51.3186 64.8856L51.4241 75.1444L51.4796 84.5686L51.4927 87.7738L51.52 97.2725L51.5279 101.279L51.5393 109.478L51.5459 116.858L51.553 131.133L51.5544 135.865L51.5556 141.746L51.5567 148.965L51.5573 155.608L51.5577 160.847L51.5583 176.414L51.5585 183.685L51.5586 196.46L51.5587 200.656L51.5587 206.558L51.5587 208.907L51.5587 212.133L51.5587 222.802L51.5588 234.501L51.5588 239.405L51.5588 258.89L51.5588 268.769L51.5588 277.814L51.5588 286.867L51.5588 298.169L51.5588 303.005L51.5588 310.906L51.5588 314.534L51.5588 324.04L51.5588 329.232L51.5588 335.34M51.5588 965L51.5588 965L51.5588 965L51.5588 965L51.5588 965L51.5588 965L51.5588 965L51.5588 965L51.5588 965L51.5588 965L51.5589 965L51.5589 965L51.559 965L51.5599 965L51.5604 965L51.6085 965L51.6321 965L51.789 965L51.9047 965L52.2804 965L52.5377 965L53.2796 965L53.9737 965L54.5389 965L55.044 965L56.3806 965L57.6882 965L58.1312 965L58.8339 965L59.0173 965L59.1994 965L59.2705 965L59.4286 965L59.5113 965L59.6106 965L59.6495 965L59.6827 965L59.7119 965L59.7402 965L59.7411 965L59.7427 965L59.7439 965L59.7447 965L59.7448 965L59.745 965L59.745 965L59.745 965L59.745 965L59.745 965L59.745 965L59.745 965L59.745 965L59.745 965L59.745 965L59.745 965L59.745 965L59.745 965L59.745 965L59.745 965M59.745 412.931L59.745 399.541L59.745 391.748M59.745 365.944L59.745 361.278L59.745 357.257L59.745 352.194L59.745 348.886L59.745 341.22L59.745 335.659L59.745 325.919L59.745 322.666L59.745 312.373L59.745 307.032L59.745 298.814L59.745 293.339L59.745 284.92L59.745 278.371L59.745 273.611L59.745 271.306L59.745 265.263L59.745 257.071L59.745 244.14L59.745 234.929L59.7451 231.438L59.7451 229.417L59.7451 225.702L59.7451 221.169L59.7451 210.803L59.7451 207.425L59.7451 201.94L59.7452 196.463L59.7453 183.119L59.7454 178.043L59.7458 166.075L59.7463 157.711L59.7475 146.131L59.7481 142.31L59.7491 137.198L59.7513 129.542L59.7547 121.843L59.7567 118.615L59.7674 107.053L59.775 101.835L59.8052 89.4401L59.8209 85.3252L59.8703 76.4243L59.9658 66.3798L60.0076 63.3088L60.0937 58.2933L60.1815 54.334L60.3209 49.4732L60.6272 42.0921L60.8191 38.7611L61.1291 34.5946L61.3625 32.1394L62.2305 26.1332L62.5344 24.8367L62.6672 24.371L62.9419 23.5858L63.1996 23.0526L63.5445 22.6268L63.7503 22.5239L63.9029 22.5193L63.9775 22.5392L64.1175 22.6161L64.5572 23.1989L64.836 23.8493L65.2008 25.0619L65.7445 27.7633L66.0758 30.0726L66.3147 32.1484L66.5679 34.8368L66.6865 36.3168L66.9355 40.0341L67.2542 46.653L67.4534 52.7401L67.5671 57.5228L67.6592 62.6801L67.7138 66.64L67.7507 69.9407L67.8142 77.6205L67.8426 82.5548L67.8619 86.9261L67.8835 93.5502L67.9054 104.42L67.9086 106.806L67.9149 112.569L67.9175 115.646L67.9203 119.695L67.9247 128.74L67.9276 139.124L67.9284 143.673L67.9289 146.766L67.9291 148.669L67.9295 151.683L67.9301 159.677L67.9307 172.908L67.931 183.174L67.9311 193.955L67.9312 200.276L67.9312 218.07L67.9313 227.602L67.9313 235.772L67.9313 242.311L67.9313 249.828L67.9313 254.792L67.9313 267.199L67.9313 270.381L67.9313 278.242L67.9313 289.263L67.9313 301.778L67.9313 306.292L67.9313 320.29L67.9313 327.52L67.9313 339.271L67.9313 343.352L67.9313 350.681L67.9313 356.095L67.9313 361.286L67.9313 364.75L67.9313 376.167L67.9313 388.801L67.9313 399.838L67.9313 404.881L67.9313 422.511M67.9313 965L67.9313 965L67.9313 965L67.9313 965L67.9313 965L67.9313 965L67.9313 965L67.9313 965L67.9313 965L67.9313 965L67.9313 965L67.9313 965L67.9313 965L67.9314 965L67.9314 965L67.9316 965L67.9318 965L67.9328 965L67.9335 965L67.9342 965L67.9358 965L67.9382 965L67.9398 965L67.949 965L67.9565 965L67.9931 965L68.0219 965L68.0563 965L68.0745 965L68.1613 965L68.268 965L68.4579 965L68.5883 965L69.5316 965L70.4054 965L70.7496 965L71.3766 965L72.5116 965L72.9828 965L74.0027 965L75.011 965L75.3149 965L75.4647 965L75.7574 965L75.9156 965L76.0057 965L76.0563 965L76.0677 965L76.0794 965L76.087 965L76.0977 965L76.1036 965L76.1077 965L76.1096 965L76.1135 965L76.1146 965L76.117 965L76.1172 965L76.1175 965L76.1175 965L76.1175 965L76.1175 965L76.1175 965L76.1175 965L76.1175 965L76.1175 965L76.1175 965L76.1175 965L76.1175 965L76.1175 965L76.1175 965L76.1175 965L76.1175 965L76.1175 965L76.1175 965L76.1175 965L76.1175 965L76.1175 965L76.1175 965L76.1175 965L76.1175 965L76.1175 965L76.1175 965L76.1175 965L76.1175 965L76.1175 965L76.1175 965L76.1175 965L76.1175 965L76.1175 965L76.1175 965L76.1175 965L76.1175 965M76.1175 514.055L76.1175 497.381L76.1175 491.625L76.1175 486.853L76.1175 484.964L76.1175 477.701L76.1175 472.146L76.1175 459.297L76.1175 451.108L76.1175 438.88L76.1175 429.072L76.1175 411.45L76.1175 406.708L76.1175 391.864L76.1175 384.185L76.1175 378.773L76.1175 374.346L76.1175 369.892L76.1175 366.309L76.1175 358.6L76.1175 349.217L76.1175 338.622L76.1175 326.488L76.1175 311.503L76.1175 305.732L76.1175 298.033L76.1175 294.093L76.1175 283.117L76.1176 279.608L76.1176 269.891L76.1176 266.13L76.1176 258.75L76.1176 252.355L76.1176 241.733L76.1176 232.929L76.1176 224.697L76.1176 218.78L76.1177 202.765L76.1177 195.986L76.1179 183.457L76.1181 172.936L76.1187 160.368L76.119 155.686L76.1208 141.279L76.1233 131.283L76.128 120.529L76.1327 113.985L76.1397 107.173L76.1479 101.615L76.1721 91.2018L76.1886 86.4893L76.2073 82.3413L76.2384 77.0598L76.3189 68.0114L76.3752 63.6449L76.5266 55.4739L76.6288 51.5548L76.7717 47.2497L76.8584 45.0926L76.9756 42.5666L77.1741 39.0381L77.3438 36.5625L77.6899 32.5774L77.866 30.9547L78.1774 28.5795L78.3136 27.7073L78.5834 26.229L78.8588 25.0198L79.2279 23.8081L79.6495 22.9289L79.8525 22.6821L80.1444 22.5195L80.2705 22.5185L80.5861 22.6988L80.7846 22.9481L81.1336 23.652L81.6695 25.456L81.8744 26.4108L82.1076 27.7061L82.3295 29.1759L82.7361 32.6238L83.1756 37.9412L83.4865 43.4L83.8251 52.7114L84.0391 63.164L84.1339 71.0241L84.1741 75.8158L84.204 80.4656L84.2174 83.0174L84.2486 90.9633L84.276 103.141L84.2859 111.023L84.2954 124.322L84.2974 129.365L84.3011 144.273L84.302 151.587L84.3029 163.161L84.3032 169.895L84.3033 175.275L84.3034 178.095L84.3035 185.507L84.3036 190.955L84.3037 203.054L84.3037 206.789L84.3037 210.618L84.3038 221.533L84.3038 231.174L84.3038 237.016L84.3038 246.689L84.3038 251.668L84.3038 264.334L84.3038 267.6L84.3038 269.556L84.3038 274.521L84.3038 292.483L84.3038 295.564L84.3038 297.615L84.3038 304.823L84.3038 321.51L84.3038 325.156L84.3038 330.712L84.3038 335.028L84.3038 342.485L84.3038 348.742L84.3038 354.263L84.3038 356.367L84.3038 359.911L84.3038 364.26L84.3038 380.4L84.3038 385.11L84.3038 387.987L84.3038 393.711L84.3038 405.974L84.3038 411.255L84.3038 417.751L84.3038 422.711L84.3038 431.902L84.3038 443.875L84.3038 456.856L84.3038 459.714L84.3038 465.926L84.3038 470.499L84.3038 487.176L84.3038 493.152L84.3038 504.224L84.3038 512.334L84.3038 522.763M84.3038 573.984M84.3038 965L84.3038 965L84.3038 965L84.3038 965L84.3038 965L84.3038 965L84.3038 965L84.3038 965L84.3038 965L84.3038 965L84.3038 965L84.3038 965L84.3038 965L84.3038 965L84.3038 965L84.3038 965L84.3038 965L84.3038 965L84.3038 965L84.3038 965L84.3038 965L84.3038 965L84.3038 965L84.3038 965L84.3038 965L84.3038 965L84.3038 965L84.3038 965L84.3038 965L84.3038 965L84.3039 965L84.304 965L84.3042 965L84.3044 965L84.3045 965L84.3046 965L84.3049 965L84.3052 965L84.3057 965L84.307 965L84.3085 965L84.3359 965L84.3655 965L84.4217 965L84.4574 965L84.8464 965L85.0114 965L86.2992 965L86.7258 965L88.5522 965L89.3022 965L90.1904 965L90.7232 965L91.0618 965L91.3256 965L91.7291 965L91.9771 965L92.1662 965L92.3155 965L92.3711 965L92.45 965L92.4617 965L92.4731 965L92.4793 965L92.483 965L92.4852 965L92.49 965L92.49 965L92.49 965L92.4901 965L92.4901 965L92.4901 965L92.4901 965L92.4901 965L92.4901 965L92.4901 965L92.4901 965L92.4901 965L92.4901 965L92.4901 965L92.4901 965L92.4901 965L92.4901 965L92.4901 965L92.4901 965L92.4901 965L92.4901 965L92.4901 965L92.4901 965L92.4901 965L92.4901 965L92.4901 965L92.4901 965M92.4901 965M92.4901 619.212L92.4901 619.212L92.4901 603.805L92.4901 595.681L92.4901 585.902L92.4901 571.341L92.4901 564.543L92.4901 555.123L92.4901 548.999L92.4901 537.836L92.4901 532.275L92.4901 524.874L92.4901 518.36L92.4901 508.078L92.4901 503.035L92.4901 493.909L92.4901 485.63L92.4901 473.938L92.4901 461.68L92.4901 447.921L92.4901 443.129L92.4901 438.352L92.4901 434.202L92.4901 427.599L92.4901 422.292L92.4901 413.464L92.4901 404.066L92.4901 388.164L92.4901 383.168L92.4901 368.032L92.4901 359.027L92.4901 353.748L92.4901 345.508L92.4901 331.482L92.4901 325.899L92.4901 319.52L92.4901 310.543L92.4901 302.22L92.4901 293.491L92.4901 282.781L92.4901 279.226L92.4901 273.945L92.4901 269.556L92.4901 260.03L92.4901 253.261L92.4901 241.719L92.4901 237.727L92.4901 224.012L92.4901 216.147L92.4902 203.708L92.4902 195.896L92.4902 192.819L92.4903 190.779L92.4903 184.98L92.4904 181.817L92.4906 173.46L92.4907 169.353L92.4913 157.906L92.4919 151.62L92.4932 142.02L92.495 134.012L92.4983 124.811L92.5005 120.541L92.5079 111.096L92.5191 102.394L92.533 95.4568L92.5606 86.619L92.5803 82.2442L92.6079 77.5159L92.693 67.8743L92.7638 62.5726L92.8603 57.2327L93 51.601" />

</g>

<path id="xticks687" d="M15 92L87 92M57 92L57 90M27 92L27 90M39 92L39 90M21 92L21 90M45 92L45 90M33 92L33 90M75 92L75 90M51 92L51 90M81 92L81 90M63 92L63 90M69 92L69 90M16.8062 92L16.8062 91M17.8627 92L17.8627 91M18.6124 92L18.6124 91M19.1938 92L19.1938 91M19.6689 92L19.6689 91M20.0706 92L20.0706 91M20.4185 92L20.4185 91M20.7255 92L20.7255 91M22.8062 92L22.8062 91M23.8627 92L23.8627 91M24.6124 92L24.6124 91M25.1938 92L25.1938 91M25.6689 92L25.6689 91M26.0706 92L26.0706 91M26.4185 92L26.4185 91M26.7255 92L26.7255 91M28.8062 92L28.8062 91M29.8627 92L29.8627 91M30.6124 92L30.6124 91M31.1938 92L31.1938 91M31.6689 92L31.6689 91M32.0706 92L32.0706 91M32.4185 92L32.4185 91M32.7255 92L32.7255 91M34.8062 92L34.8062 91M35.8627 92L35.8627 91M36.6124 92L36.6124 91M37.1938 92L37.1938 91M37.6689 92L37.6689 91M38.0706 92L38.0706 91M38.4185 92L38.4185 91M38.7255 92L38.7255 91M40.8062 92L40.8062 91M41.8627 92L41.8627 91M42.6124 92L42.6124 91M43.1938 92L43.1938 91M43.6689 92L43.6689 91M44.0706 92L44.0706 91M44.4185 92L44.4185 91M44.7255 92L44.7255 91M46.8062 92L46.8062 91M47.8627 92L47.8627 91M48.6124 92L48.6124 91M49.1938 92L49.1938 91M49.6689 92L49.6689 91M50.0706 92L50.0706 91M50.4185 92L50.4185 91M50.7255 92L50.7255 91M52.8062 92L52.8062 91M53.8627 92L53.8627 91M54.6124 92L54.6124 91M55.1938 92L55.1938 91M55.6689 92L55.6689 91M56.0706 92L56.0706 91M56.4185 92L56.4185 91M56.7255 92L56.7255 91M58.8062 92L58.8062 91M59.8627 92L59.8627 91M60.6124 92L60.6124 91M61.1938 92L61.1938 91M61.6689 92L61.6689 91M62.0706 92L62.0706 91M62.4185 92L62.4185 91M62.7255 92L62.7255 91M64.8062 92L64.8062 91M65.8627 92L65.8627 91M66.6124 92L66.6124 91M67.1938 92L67.1938 91M67.6689 92L67.6689 91M68.0706 92L68.0706 91M68.4185 92L68.4185 91M68.7255 92L68.7255 91M70.8062 92L70.8062 91M71.8627 92L71.8627 91M72.6124 92L72.6124 91M73.1938 92L73.1938 91M73.6689 92L73.6689 91M74.0706 92L74.0706 91M74.4185 92L74.4185 91M74.7255 92L74.7255 91M76.8062 92L76.8062 91M77.8627 92L77.8627 91M78.6124 92L78.6124 91M79.1938 92L79.1938 91M79.6689 92L79.6689 91M80.0706 92L80.0706 91M80.4185 92L80.4185 91M80.7255 92L80.7255 91M82.8062 92L82.8062 91M83.8627 92L83.8627 91M84.6124 92L84.6124 91M85.1938 92L85.1938 91M85.6689 92L85.6689 91M86.0706 92L86.0706 91M86.4185 92L86.4185 91M86.7255 92L86.7255 91M87 92L87 92" />

<g stroke="none" id="xticklabels687" fill="black">

<text y="98.0" x="57.0"></text>

<text y="98.0" x="27.0"></text>

<text y="98.0" x="87.0">10¹⁰</text>

<text y="98.0" x="39.0"></text>

<text y="98.0" x="21.0"></text>

<text y="98.0" x="45.0"></text>

<text y="98.0" x="33.0">10</text>

<text y="98.0" x="75.0"></text>

<text y="98.0" x="51.0">10000</text>

<text y="98.0" x="81.0"></text>

<text y="98.0" x="63.0"></text>

<text y="98.0" x="69.0">10⁷</text>

<text y="98.0" x="15.0">0.01</text>

</g>

<path id="yticks687" d="M15 92L15 3M15 34.8256L17 34.8256M15 22.5138L17 22.5138M15 10.202L17 10.202M15 63.4128L17 63.4128M15 15.3118L17 15.3118M15 6.23844L17 6.23844M15 3.00001L15 3" />

<g stroke="none" id="yticklabels687" text-anchor="end" fill="black">

<text y="36.5756235789" x="14.0">0.5</text>

<text y="24.2637917554" x="14.0">1</text>

<text y="11.9519599319" x="14.0">2</text>

<text y="4.75" x="14.0">3</text>

<text y="65.1628117895" x="14.0">0.1</text>

<text y="17.0618318235" x="14.0">1.5</text>

<text y="7.98843536842" x="14.0">2.5</text>

</g>

<path id="rightticks687" d="M87 92L87 3M87 14.5017L85 14.5017M87 3.00001L87 3" />

<g stroke="none" id="rightticklabels687" text-anchor="start" fill="black">

<text y="16.2516879469" x="88.0">π/2</text>

</g>

<path id="topticks687" d="M15 3L87 3M57 3L57 5M27 3L27 5M39 3L39 5M21 3L21 5M45 3L45 5M33 3L33 5M75 3L75 5M51 3L51 5M81 3L81 5M63 3L63 5M69 3L69 5M16.8062 3L16.8062 4M17.8627 3L17.8627 4M18.6124 3L18.6124 4M19.1938 3L19.1938 4M19.6689 3L19.6689 4M20.0706 3L20.0706 4M20.4185 3L20.4185 4M20.7255 3L20.7255 4M22.8062 3L22.8062 4M23.8627 3L23.8627 4M24.6124 3L24.6124 4M25.1938 3L25.1938 4M25.6689 3L25.6689 4M26.0706 3L26.0706 4M26.4185 3L26.4185 4M26.7255 3L26.7255 4M28.8062 3L28.8062 4M29.8627 3L29.8627 4M30.6124 3L30.6124 4M31.1938 3L31.1938 4M31.6689 3L31.6689 4M32.0706 3L32.0706 4M32.4185 3L32.4185 4M32.7255 3L32.7255 4M34.8062 3L34.8062 4M35.8627 3L35.8627 4M36.6124 3L36.6124 4M37.1938 3L37.1938 4M37.6689 3L37.6689 4M38.0706 3L38.0706 4M38.4185 3L38.4185 4M38.7255 3L38.7255 4M40.8062 3L40.8062 4M41.8627 3L41.8627 4M42.6124 3L42.6124 4M43.1938 3L43.1938 4M43.6689 3L43.6689 4M44.0706 3L44.0706 4M44.4185 3L44.4185 4M44.7255 3L44.7255 4M46.8062 3L46.8062 4M47.8627 3L47.8627 4M48.6124 3L48.6124 4M49.1938 3L49.1938 4M49.6689 3L49.6689 4M50.0706 3L50.0706 4M50.4185 3L50.4185 4M50.7255 3L50.7255 4M52.8062 3L52.8062 4M53.8627 3L53.8627 4M54.6124 3L54.6124 4M55.1938 3L55.1938 4M55.6689 3L55.6689 4M56.0706 3L56.0706 4M56.4185 3L56.4185 4M56.7255 3L56.7255 4M58.8062 3L58.8062 4M59.8627 3L59.8627 4M60.6124 3L60.6124 4M61.1938 3L61.1938 4M61.6689 3L61.6689 4M62.0706 3L62.0706 4M62.4185 3L62.4185 4M62.7255 3L62.7255 4M64.8062 3L64.8062 4M65.8627 3L65.8627 4M66.6124 3L66.6124 4M67.1938 3L67.1938 4M67.6689 3L67.6689 4M68.0706 3L68.0706 4M68.4185 3L68.4185 4M68.7255 3L68.7255 4M70.8062 3L70.8062 4M71.8627 3L71.8627 4M72.6124 3L72.6124 4M73.1938 3L73.1938 4M73.6689 3L73.6689 4M74.0706 3L74.0706 4M74.4185 3L74.4185 4M74.7255 3L74.7255 4M76.8062 3L76.8062 4M77.8627 3L77.8627 4M78.6124 3L78.6124 4M79.1938 3L79.1938 4M79.6689 3L79.6689 4M80.0706 3L80.0706 4M80.4185 3L80.4185 4M80.7255 3L80.7255 4M82.8062 3L82.8062 4M83.8627 3L83.8627 4M84.6124 3L84.6124 4M85.1938 3L85.1938 4M85.6689 3L85.6689 4M86.0706 3L86.0706 4M86.4185 3L86.4185 4M86.7255 3L86.7255 4M87 3L87 3" />

<g stroke="none" id="topticklabels687" fill="black" />

</g>

</svg>

