<?xml version="1.0" standalone="no"?>
<!DOCTYPE svg PUBLIC "-//W3C//DTD SVG 1.1//EN" "http://www.w3.org/Graphics/SVG/1.1/DTD/svg11.dtd">

<svg style="stroke:black; fill:none; stroke-width:0.25pt; stroke-linejoin:round; font-size:5; text-anchor:middle" xmlns="http://www.w3.org/2000/svg" font-family="Helvetica,Arial,FreeSans,Sans,sans,sans-serif" height="400px" width="400px" version="1.1" xmlns:xlink="http://www.w3.org/1999/xlink" viewBox="0 0 100 100">

<g font-size="5" id="plot30" clip-path="url(#dataclip30)">

<clipPath id="dataclip30">

<rect y="0.0" width="100.0" x="0.0" height="100.0" />

</clipPath>

<g id="data30" clip-path="url(#dataclip30)">

<path stroke="blue" stroke-width="0.5pt" d="M66.2498 75.3075L67.1922 74.677L68.2799 73.8824L69.9387 72.5161L70.666 71.8504L72.2871 70.1943L73.6057 68.6359L74.8703 66.9113L75.878 65.3251L76.4018 64.4039L76.9734 63.3027L77.82 61.4269L78.4098 59.8697L78.9128 58.2809L79.4191 56.2485L79.8396 53.7583L79.987 52.3029L80.0644 50.8114L80.0379 48.4998L79.9539 47.2995L79.7348 45.4872L79.4261 43.7844L79.0057 42.0503L78.6174 40.7495L77.9697 38.9447L77.3191 37.4225L76.6367 36.0352L75.5932 34.2039L74.7281 32.8813L73.5773 31.3281L73.0311 30.6584L72.1008 29.6019L71.0755 28.5442L68.6468 26.4029L67.4163 25.4807L65.4728 24.2101L64.0141 23.3892L61.9993 22.4221L59.9503 21.6184L58.9631 21.2913L57.4824 20.8703L55.4346 20.4198L53.7604 20.1607L52.3592 20.0173L49.9144 19.9248L48.9466 19.9431L47.506 20.0283L45.5338 20.2581L43.4824 20.6394L42.4281 20.8934L40.6181 21.4254L39.794 21.7093L38.2799 22.3023L37.3911 22.6954L36.3686 23.1912L34.672 24.1238L33.6566 24.7528L31.6545 26.1679L29.8332 27.688L28.9445 28.5246L28.1982 29.2827L27.4149 30.1395L25.8856 32.0271L25.3722 32.7374L24.6362 33.8383L24.0412 34.8122L23.2422 36.2688L22.6361 37.5204L21.7861 39.5836L21.2786 41.0777L21.0484 41.8558L20.8158 42.7329L20.3861 44.7521L20.2167 45.8186L20.0412 47.3548L19.9476 48.8248L19.925 49.8495L20.0311 52.5279L20.2298 54.273L20.4763 55.7337L21.0385 58.1091L21.3527 59.1573L22.1624 61.3839L23.181 63.6112L23.865 64.8824L24.431 65.8351L25.2977 67.1559L26.3968 68.6391L27.2885 69.7158L28.13 70.6453L29.5857 72.0858L30.4316 72.8387L31.5514 73.7523L33.1979 74.9442L35.6551 76.4339L37.355 77.2879L39.2468 78.0873L40.2531 78.4521L42.1274 79.0267L43.2075 79.2983L45.2133 79.692L47.9995 80.0087L49.8421 80.0749L50.6729 80.0678L51.8473 80.0186L53.6666 79.851L55.1499 79.6311L56.9823 79.2536L57.8592 79.0303L60.1777 78.3009L61.806 77.6612L64.6149 76.2856L66.2498 75.3075" />

<path stroke="blue" stroke-width="0.5pt" d="M84.3975 75.0173L84.7117 73.619L84.9344 72.4846L85.3192 70.0239L85.623 66.7975L85.6995 64.684L85.6831 62.6918L85.5953 60.9125L85.2522 57.6382L85.1222 56.7757L84.9032 55.521L84.3601 53.0229L83.8615 51.1621L83.1625 48.9513L82.4045 46.8896L82.0393 45.9853L81.526 44.7902L80.5672 42.7459L78.3514 38.6489L74.6375 32.7046L73.0191 30.0859L71.9382 28.1049L71.3956 26.9235L71.0235 25.9467L70.7314 24.9591L70.5266 23.9024L70.4713 23.3832L70.4526 22.496L70.4996 21.8831L70.6754 20.9432L70.8281 20.431L71.1054 19.7353L71.2544 19.4295L71.8105 18.512L72.1321 18.0827L72.559 17.586L72.9903 17.1471L74.085 16.229L75.0173 15.6025" />

<path stroke="blue" stroke-width="0.5pt" d="M75.0173 15.6025L73.7187 15.3092L71.9095 14.9637L70.8277 14.7918L69.4252 14.6073L67.861 14.4521L65.6581 14.3237L62.3022 14.3302L60.6827 14.421L57.9451 14.7055L56.5603 14.9129L53.8215 15.4507L52.4995 15.7719L51.3033 16.0978L48.9911 16.8239L47.3143 17.4309L45.7111 18.0754L44.8103 18.4651L42.7938 19.4092L39.547 21.1313L38.0978 21.9738L37.0081 22.633L35.1716 23.7828L32.4886 25.5002L28.7124 27.7499L27.2619 28.4585L26.0144 28.9532L25.0312 29.2505L23.311 29.5339L22.1575 29.5278L21.5857 29.4588L21.1025 29.3637L20.5262 29.2035L19.7702 28.9105L19.2316 28.6398L18.4807 28.1674L17.9673 27.7741L17.6182 27.4705L17.2049 27.0696L16.3178 26.0337L15.6025 24.9827" />

<path stroke="blue" stroke-width="0.5pt" d="M15.6025 24.9827L15.1691 26.9699L14.5839 30.7802L14.3687 33.3471L14.3018 35.2233L14.3099 37.0467L14.3484 38.1212L14.6144 41.3331L14.8812 43.2453L15.1615 44.8148L15.9894 48.3124L16.6351 50.4454L17.4026 52.6115L18.7241 55.7645L19.5052 57.4001L21.7708 61.5593L23.0249 63.6255L24.038 65.2287L25.3537 67.2815L26.1572 68.5545L27.3499 70.5559L28.1354 72.0446L28.6449 73.1739L29.204 74.7932L29.4713 76.0817L29.5303 76.6382L29.5411 77.6448L29.4492 78.4719L28.999 80.0265L28.5663 80.8983L28.1628 81.5259L27.9305 81.838L27.403 82.4549L26.7683 83.0768L24.9827 84.3975" />

<path stroke="blue" stroke-width="0.5pt" d="M24.9827 84.3975L27.9948 85.0198L29.5271 85.2589L31.039 85.4443L33.839 85.6562L35.4214 85.7008L36.9392 85.6926L41.4456 85.3721L43.4241 85.0897L46.5574 84.4614L47.924 84.1166L52.0602 82.8035L54.1166 81.9969L56.5787 80.8952L59.2693 79.5243L62.4819 77.678L67.4993 74.5075L69.9976 72.9702L71.8348 71.9683L73.1148 71.3796L74.5129 70.8763L75.0806 70.7216L75.9321 70.5507L77.3628 70.4488L78.4269 70.5433L79.0544 70.6748L79.365 70.7623L80.4652 71.2011L81.1969 71.6155L81.8196 72.0553L83.1071 73.2656L83.6627 73.9405L84.3975 75.0173" />

</g>

<path stroke-width="0.25pt" id="xaxis30" d="M46.8088 5L45.3505 6.18319L43.1982 8.15299L42.55 8.80717L41.8617 9.53758L40.0065 11.7211L39.147 12.8621L38.3944 13.9456L37.9715 14.5951L37.2567 15.7722L35.8917 18.3877L35.3317 19.6628L34.7765 21.1078L34.0345 23.5098L33.6185 25.3326L33.2952 27.4298L33.1588 29.0714L33.1262 30.6486L33.2144 32.4918L33.3321 33.5727L33.4895 34.5899L33.8254 36.1573L34.1188 37.2099L34.4656 38.2475L35.059 39.7064L35.357 40.336L35.7857 41.1542L36.6672 42.592L37.507 43.7378L38.6244 45.0159L39.4428 45.8123L40.8301 46.9475L42.1717 47.8328L42.7243 48.1449L43.682 48.6201L44.6585 49.025L45.6008 49.3446L46.7969 49.6556L48.0582 49.8742L49.5333 49.9928L50.577 50.0111L51.8891 50.119L52.4603 50.2024L53.5222 50.4173L54.8493 50.7996L55.4451 51.0143L56.1295 51.2956L56.9539 51.6864L58.4287 52.5401L59.5795 53.3624L60.0582 53.7507L60.8381 54.4493L61.4423 55.0538L62.4498 56.2081L63.2919 57.3476L63.823 58.1723L64.187 58.7968L64.6912 59.762L65.3655 61.3035L65.5842 61.8912L65.8981 62.8456L66.3088 64.4061L66.4701 65.1888L66.8154 67.891L66.8733 69.3103L66.8331 71.078L66.6499 73.0172L66.3488 74.834L66.1189 75.8796L65.8648 76.8633L65.2467 78.8265L64.6907 80.2828L63.9059 82.0388L63.316 83.199L62.27 85.0191L61.3245 86.4693L60.7822 87.2356L58.8774 89.6329L57.5501 91.089L56.2923 92.3401L53.1912 95M36.0841 44.1069L37.5223 41.4742M62.4777 58.5258L63.9159 55.8931M64.9876 76.118L67.512 74.4971M32.488 25.5029L35.0124 23.882M42.1044 8.63465L43.5825 8.3797M38.8187 12.5275L40.264 12.1262M36.2233 16.6341L37.6214 16.0906M34.3253 20.8565L35.6621 20.1761M32.5869 29.2633L33.7619 28.3309M32.699 33.2627L33.7751 32.2177M33.4148 37.0111L34.3811 35.8638M34.6832 40.4299L35.5301 39.1919M38.6274 46.006L39.2116 44.6244M41.1587 48.0501L41.602 46.6171M43.9558 49.54L44.2538 48.0699M46.9326 50.446L47.0824 48.9535M52.9176 51.0465L53.0674 49.554M55.7462 51.9301L56.0442 50.46M58.398 53.3829L58.8413 51.9499M60.7884 55.3756L61.3726 53.994M64.4699 60.8081L65.3168 59.5701M65.6189 64.1362L66.5852 62.9889M66.2249 67.7823L67.301 66.7373M66.2381 71.6691L67.4131 70.7367M64.3379 79.8239L65.6747 79.1435M62.3786 83.9094L63.7767 83.3659M59.736 87.8738L61.1813 87.4725M56.4175 91.6203L57.8956 91.3654" />

<g stroke="none" id="xticklabels30" fill="black">

<text transform="matrix(-0.408306, 0.912845, -0.912845, -0.408306, 49.3026, 4.82316)">–1.5</text>

<text transform="matrix(0.74396, 0.668224, -0.668224, 0.74396, 38.0018, 40.5966)">–0.5</text>

<text transform="matrix(0.743954, 0.668231, -0.668231, 0.743954, 64.3954, 55.0155)">0.5</text>

<text transform="matrix(0.177154, 0.984183, -0.984183, 0.177154, 68.3535, 73.9568)">1</text>

<text transform="matrix(-0.408312, 0.912843, -0.912843, -0.408312, 55.6849, 94.8232)">1.5</text>

<text transform="matrix(0.177161, 0.984182, -0.984182, 0.177161, 35.8539, 23.3417)">–1</text>

</g>

<path stroke-width="0.25pt" id="yaxis30" d="M5 53.1912L6.50138 55.0191L7.43287 56.0514L8.28701 56.9371L9.53699 58.1378L11.6888 59.9681L12.7588 60.7781L14.2415 61.8008L15.4066 62.5283L17.1117 63.4797L18.7274 64.264L20.5071 65.0028L21.6814 65.4209L23.4609 65.9526L25.4321 66.4006L26.3051 66.5521L27.2268 66.6808L28.7778 66.8244L30.5831 66.8744L32.0342 66.8205L32.6876 66.768L34.5124 66.5242L36.2994 66.1383L37.9531 65.6388L39.4666 65.0476L40.4177 64.6024L40.8691 64.3692L41.8439 63.8132L43.8546 62.3994L44.9081 61.4784L45.5399 60.8494L46.4134 59.8602L46.8856 59.2538L47.523 58.3312L47.914 57.6893L48.5127 56.5492L48.8715 55.7343L49.4154 54.1591L49.6501 53.228L49.9946 50.4033L50.6494 45.6204L51.1094 44.313L51.3986 43.6409L51.8221 42.786L52.386 41.8124L52.9002 41.0414L53.5818 40.1457L54.558 39.0488L55.2003 38.4199L56.2462 37.5198L57.2694 36.7617L58.2002 36.16L60.0181 35.1861L61.4399 34.582L63.0874 34.0302L63.9884 33.7892L66.0071 33.3915L67.2882 33.2343L68.6924 33.1418L69.7517 33.1252L70.584 33.1434L72.1915 33.2545L73.3724 33.3992L75.4182 33.7746L77.0754 34.1948L79.4656 34.9869L81.2422 35.7223L82.3711 36.2571L84.1913 37.2355L85.5687 38.0762L86.1927 38.4871L87.9923 39.7839L89.6541 41.1409L90.9709 42.337L91.9448 43.2978L93.6573 45.1641L95 46.8088M41.4742 62.4777L44.1069 63.9159M55.8931 36.0841L58.5258 37.5223M74.4971 32.488L76.118 35.0124M23.882 64.9876L25.5029 67.512M8.3797 56.4175L8.63465 57.8956M12.1262 59.736L12.5275 61.1813M16.0906 62.3786L16.6341 63.7767M20.1761 64.3379L20.8565 65.6747M28.3309 66.2381L29.2633 67.4131M32.2177 66.2249L33.2627 67.301M35.8638 65.6189L37.0111 66.5852M39.1919 64.4699L40.4299 65.3168M44.6244 60.7884L46.006 61.3726M46.6171 58.398L48.0501 58.8413M48.0699 55.7462L49.54 56.0442M48.9535 52.9176L50.446 53.0674M49.554 46.9326L51.0465 47.0824M50.46 43.9558L51.9301 44.2538M51.9499 41.1587L53.3829 41.602M53.994 38.6274L55.3756 39.2116M59.5701 34.6832L60.8081 35.5301M62.9889 33.4148L64.1362 34.3811M66.7373 32.699L67.7823 33.7751M70.7367 32.5869L71.6691 33.7619M79.1435 34.3253L79.8239 35.6621M83.3659 36.2233L83.9094 37.6214M87.4725 38.8187L87.8738 40.264M91.3654 42.1044L91.6203 43.5825" />

<g stroke="none" id="yticklabels30" text-anchor="middle" fill="black">

<text transform="matrix(-0.912845, -0.408306, 0.408306, -0.912845, 5.17684, 55.6849)">–1.5</text>

<text transform="matrix(-0.668224, 0.74396, -0.74396, -0.668224, 44.9845, 64.3954)">–0.5</text>

<text transform="matrix(-0.668231, 0.743954, -0.743954, -0.668231, 59.4034, 38.0018)">0.5</text>

<text transform="matrix(-0.984183, 0.177154, -0.177154, -0.984183, 76.6583, 35.8539)">1</text>

<text transform="matrix(-0.912843, -0.408312, 0.408312, -0.912843, 95.1768, 49.3026)">1.5</text>

<text transform="matrix(-0.984182, 0.177161, -0.177161, -0.984182, 26.0432, 68.3535)">–1</text>

</g>

<path id="leftarrow30" stroke="none" transform="matrix(-0.790724, 0.612173, 0.997495, -0.0707372, 46.8088, 5)" d="M 0 0 L 0.5 -1.2 L -3 0 L 0.5 1.2 L 0 0 z" fill="black" />

<path id="rightarrow30" stroke="none" transform="matrix(-0.790732, 0.612162, 0.997495, -0.0707372, 53.1912, 95)" d="M 0 0 L -0.5 -1.2 L 3 0 L -0.5 1.2 L 0 0 z" fill="black" />

<path id="bottomarrow30" stroke="none" transform="matrix(0.0707372, 0.997495, 0.612162, 0.790732, 95, 46.8088)" d="M 0 0 L -1.2 -0.5 L 0 3 L 1.2 -0.5 L 0 0 z" fill="black" />

<path id="toparrow30" stroke="none" transform="matrix(0.0707372, 0.997495, 0.612173, 0.790724, 5, 53.1912)" d="M 0 0 L -1.2 0.5 L 0 -3 L 1.2 0.5 L 0 0 z" fill="black" />

</g>

</svg>

