<?xml version="1.0" standalone="no"?>
<!DOCTYPE svg PUBLIC "-//W3C//DTD SVG 1.1//EN" "http://www.w3.org/Graphics/SVG/1.1/DTD/svg11.dtd">

<svg style="stroke:black; fill:none; stroke-width:0.25pt; stroke-linejoin:round; font-size:5; text-anchor:middle" xmlns="http://www.w3.org/2000/svg" font-family="Helvetica,Arial,FreeSans,Sans,sans,sans-serif" height="100%" width="100%" version="1.1" xmlns:xlink="http://www.w3.org/1999/xlink" viewBox="0 0 200 100" background-color="white">

<g font-size="5" id="plot797" clip-path="url(#dataclip797)">

<clipPath id="dataclip797">

<rect y="0.0" width="100.0" x="0.0" height="100.0" />

</clipPath>

<g id="data797" clip-path="url(#dataclip797)">

<path stroke="blue" stroke-width="0.5pt" d="M80 50L79.9512 48.2891L79.8962 47.5065L79.6819 45.6427L79.4838 44.4585L79.286 43.4939L79.0201 42.3951L78.4584 40.5069L78.1265 39.5646L77.6018 38.2466L76.4534 35.8502L75.7646 34.6317L75.0588 33.5059L73.9003 31.8678L72.1994 29.8212L70.9114 28.4892L70.2985 27.91L69.4534 27.1622L68.647 26.4992L67.5875 25.6961L65.7483 24.4659L63.4477 23.1829L61.6521 22.3553L61.0176 22.0964L59.762 21.6327L57.4656 20.9438L56.2327 20.6546L54.9595 20.4128L54.3231 20.3131L52.8844 20.139L51.0707 20.0191L48.7647 20.0254L46.1794 20.2443L44.407 20.526L41.6513 21.1851L39.724 21.8148L37.3111 22.8156L36.0026 23.4656L33.9019 24.685L31.4617 26.4133L30.0167 27.6244L29.3299 28.2572L27.8473 29.7699L26.7154 31.0837L25.4549 32.7506L24.6404 33.9721L23.8324 35.3284L23.0475 36.8256L22.417 38.2026L21.9056 39.4784L21.1397 41.8095L20.6602 43.7407L20.2444 46.1782L20.0542 48.1967L20.0034 49.5459L20.0143 50.9277L20.0555 51.8239L20.1545 53.0412L20.4839 55.3666L20.8086 56.9184L21.0661 57.9267L21.3479 58.8913L21.8958 60.4954L22.397 61.7504L23.3972 63.8669L24.1431 65.2125L24.9923 66.5715L26.9009 69.1424L28.1325 70.5381L29.5794 71.9772L30.2989 72.6244L31.4396 73.5693L33.3208 74.936L35.0548 76.0123L36.4891 76.7854L37.5327 77.2868L38.5129 77.7136L39.9113 78.2528L41.5148 78.775L43.4804 79.283L45.2066 79.6146L45.9257 79.722L47.2356 79.8724L48.2288 79.9477L50.5155 79.9956L52.5289 79.8932L53.7 79.771L54.3479 79.6833L55.7095 79.4517L57.4611 79.0574L58.656 78.7241L60.1901 78.2163L63.2426 76.919L64.2803 76.3832L65.5685 75.6442L66.9972 74.7203L69.2938 72.9728L70.341 72.0509L71.9518 70.448L73.3542 68.8303L74.6624 67.0812L75.6868 65.4981L76.0987 64.7939L77.0153 63.0451L77.5866 61.789L78.0588 60.6163L78.3409 59.8384L78.9539 57.8532L79.5162 55.366L79.6462 54.5938L79.8653 52.8397L79.9551 51.64L80 50" />

<path stroke="blue" stroke-width="0.5pt" d="M80 20L72.8395 20L63.5015 20L58.9464 20L54.384 20L51.7418 20L45.7869 20L43.3033 20L40.8059 20L38.9764 20L37.3991 20L33.2067 20L30.4933 20L28.3759 20L26.1518 20L23.1939 20L20 20" />

<path stroke="blue" stroke-width="0.5pt" d="M20 20L20 21.5913L20 24.7089L20 25.9547L20 27.3975L20 30.4797L20 32.4162L20 35.4113L20 38.4608L20 41.2846L20 42.9578L20 48.7272L20 52.0732L20 56.3759L20 62.4975L20 68.2764L20 80" />

<path stroke="blue" stroke-width="0.5pt" d="M20 80L22.0379 80L24.2532 80L27.2296 80L30.9759 80L35.2493 80L37.4332 80L38.3597 80L40.4687 80L41.8649 80L44.9892 80L47.7552 80L53.2111 80L59.599 80L69.7016 80L75.806 80L80 80" />

<path stroke="blue" stroke-width="0.5pt" d="M80 80L80 77.7395L80 73.8725L80 71.6063L80 67.9583L80 65.2302L80 63.0233L80 60.4577L80 58.9837L80 51.7829L80 47.265L80 45.0647L80 41.1611L80 31.3689L80 26.6217L80 23.2021L80 20" />

</g>

<path id="xaxis797" d="M5 50L95 50M35 51.5L35 48.5M65 51.5L65 48.5M80 51.5L80 48.5M20 51.5L20 48.5M8 50.75L8 49.25M11 50.75L11 49.25M14 50.75L14 49.25M17 50.75L17 49.25M23 50.75L23 49.25M26 50.75L26 49.25M29 50.75L29 49.25M32 50.75L32 49.25M38 50.75L38 49.25M41 50.75L41 49.25M44 50.75L44 49.25M47 50.75L47 49.25M53 50.75L53 49.25M56 50.75L56 49.25M59 50.75L59 49.25M62 50.75L62 49.25M68 50.75L68 49.25M71 50.75L71 49.25M74 50.75L74 49.25M77 50.75L77 49.25M83 50.75L83 49.25M86 50.75L86 49.25M89 50.75L89 49.25M92 50.75L92 49.25" />

<g stroke="none" id="xticklabels797" fill="black">

<text transform="translate(5, 57.5)">–1.5</text>

<text transform="translate(35, 57.5)">–0.5</text>

<text transform="translate(65, 57.5)">0.5</text>

<text transform="translate(80, 57.5)">1</text>

<text transform="translate(95, 57.5)">1.5</text>

<text transform="translate(20, 57.5)">–1</text>

</g>

<path id="yaxis797" d="M50 95L50 5M48.5 65L51.5 65M48.5 35L51.5 35M48.5 20L51.5 20M48.5 80L51.5 80M49.25 92L50.75 92M49.25 89L50.75 89M49.25 86L50.75 86M49.25 83L50.75 83M49.25 77L50.75 77M49.25 74L50.75 74M49.25 71L50.75 71M49.25 68L50.75 68M49.25 62L50.75 62M49.25 59L50.75 59M49.25 56L50.75 56M49.25 53L50.75 53M49.25 47L50.75 47M49.25 44L50.75 44M49.25 41L50.75 41M49.25 38L50.75 38M49.25 32L50.75 32M49.25 29L50.75 29M49.25 26L50.75 26M49.25 23L50.75 23M49.25 17L50.75 17M49.25 14L50.75 14M49.25 11L50.75 11M49.25 8L50.75 8" />

<g stroke="none" id="yticklabels797" text-anchor="end" fill="black">

<text y="96.75" x="47.5">–1.5</text>

<text y="66.75" x="47.5">–0.5</text>

<text y="36.75" x="47.5">0.5</text>

<text y="21.75" x="47.5">1</text>

<text y="6.75" x="47.5">1.5</text>

<text y="81.75" x="47.5">–1</text>

</g>

<path id="leftarrow797" stroke="none" transform="matrix(1, 0, 0, -1, 5, 50)" d="M 0 0 L 0.5 -1.2 L -3 0 L 0.5 1.2 L 0 0 z" fill="black" />

<path id="rightarrow797" stroke="none" transform="matrix(1, 0, 0, -1, 95, 50)" d="M 0 0 L -0.5 -1.2 L 3 0 L -0.5 1.2 L 0 0 z" fill="black" />

<path id="bottomarrow797" stroke="none" transform="matrix(1, 0, 0, -1, 50, 5)" d="M 0 0 L -1.2 -0.5 L 0 3 L 1.2 -0.5 L 0 0 z" fill="black" />

<path id="toparrow797" stroke="none" transform="matrix(1, 0, 0, -1, 50, 95)" d="M 0 0 L -1.2 0.5 L 0 -3 L 1.2 0.5 L 0 0 z" fill="black" />

</g>

<g font-size="5" id="plot938" clip-path="url(#dataclip938)">

<clipPath id="dataclip938">

<rect y="0.0" width="100.0" x="100" height="100.0" />

</clipPath>

<g id="data938" clip-path="url(#dataclip938)">

<path stroke="blue" stroke-width="0.5pt" d="M166.25 75.3075L168.084 74.0309L169.647 72.771L170.533 71.9751L170.994 71.5358L171.841 70.6758L173.066 69.2993L174.118 67.9676L174.952 66.7903L175.408 66.0915L176.297 64.5941L177.05 63.1465L178.387 59.9355L179.14 57.4412L179.461 56.0498L179.67 54.9197L179.842 53.742L180.009 52.0006L180.067 50.6885L180.075 49.8818L180.041 48.571L179.917 46.9219L179.734 45.48L179.549 44.3976L179.326 43.3293L178.901 41.6785L178.501 40.3982L177.753 38.4125L176.677 36.1117L175.552 34.1372L174.743 32.9031L173.866 31.6989L173.28 30.9586L172.234 29.7476L171.627 29.1006L170.442 27.9398L169.14 26.8013L167.902 25.8332L167.028 25.2097L165.544 24.2532L164.772 23.8022L163.724 23.2384L162.783 22.7766L160.928 21.9802L159.084 21.3294L156.899 20.7267L154.822 20.3137L152.971 20.0717L152.037 19.9937L150.425 19.9277L149.129 19.9373L147.069 20.0678L144.402 20.4502L143.167 20.7112L141.565 21.1319L140.019 21.6292L138.953 22.0271L137.189 22.7896L136.397 23.1767L135.259 23.7851L133.883 24.6079L132.571 25.4895L131.014 26.6747L129.818 27.7016L128.15 29.3331L127.073 30.5349L126.467 31.2722L125.346 32.7747L124.773 33.6247L123.774 35.2786L123.299 36.1591L122.09 38.7952L121.39 40.7263L120.911 42.3593L120.734 43.0688L120.444 44.4353L120.149 46.3321L119.942 48.9733L119.943 51.0377L120.025 52.4506L120.138 53.5722L120.363 55.1167L120.548 56.0923L120.779 57.1186L121.456 59.4751L122.304 61.7248L123.154 63.5588L123.584 64.3775L124.372 65.7392L125.056 66.802L126.45 68.7066L126.883 69.2388L127.823 70.3155L128.463 70.9924L129.743 72.2305L130.612 72.9918L131.592 73.7836L133.318 75.0246L134.611 75.84L136.827 77.0372L138.608 77.8341L140.218 78.4402L142.417 79.1036L143.683 79.4045L144.268 79.5241L145.767 79.7759L147.669 79.9848L149.126 80.0626L150.23 80.0745L151.716 80.0264L153.638 79.8545L155.209 79.6208L156.426 79.3807L157.605 79.098L158.504 78.8479L160.083 78.3349L162.319 77.4366L163.922 76.6589L166.25 75.3075" />

<path stroke="blue" stroke-width="0.5pt" d="M184.397 75.0173L184.761 73.3779L184.972 72.2798L185.29 70.2431L185.512 68.2707L185.685 65.3959L185.704 64.1595L185.632 61.5013L185.508 59.8324L185.18 57.1476L184.899 55.4967L184.499 53.6021L184.232 52.5142L183.53 50.0661L182.941 48.3197L181.192 44.0529L180.241 42.0964L179.541 40.7617L178.452 38.8206L176.687 35.9146L175.66 34.3L173.836 31.4341L172.857 29.8073L172.32 28.8436L171.612 27.4194L171.013 25.9143L170.666 24.681L170.478 23.4723L170.448 22.8123L170.502 21.8655L170.719 20.7832L170.987 20.0085L171.749 18.6011L172.181 18.0225L173.215 16.9384L173.927 16.3474L175.017 15.6025" />

<path stroke="blue" stroke-width="0.5pt" d="M175.017 15.6025L172.277 15.028L171.104 14.8333L169.168 14.5782L167.526 14.4258L166.568 14.364L164.84 14.3028L163.258 14.3035L160.079 14.4696L156.963 14.8481L155.225 15.1536L151.265 16.1086L149.266 16.7308L146.661 17.6859L145.463 18.1805L142.763 19.4245L140.984 20.3395L139.663 21.0656L138.03 22.0141L135.593 23.5158L132.712 25.358L130.891 26.4989L130.026 27.0158L128.883 27.659L127.37 28.4104L125.819 29.0193L124.906 29.2818L124.249 29.4195L123.702 29.4985L122.919 29.5509L121.289 29.4044L120.924 29.3196L120.36 29.1475L119.276 28.6643L118.414 28.1194L117.724 27.5658L116.53 26.3052L115.99 25.5801L115.603 24.9827" />

<path stroke="blue" stroke-width="0.5pt" d="M115.603 24.9827L115.223 26.6982L115.019 27.7724L114.732 29.5961L114.422 32.5205L114.343 33.8464L114.296 36.0165L114.349 38.1234L114.417 39.2661L114.677 41.8421L115.235 45.1803L115.976 48.2643L116.392 49.6824L117.605 53.134L118.277 54.7616L118.942 56.2356L119.405 57.1973L120.624 59.542L121.487 61.0738L123.554 64.4684L125.886 68.1204L126.974 69.9024L127.989 71.7488L128.23 72.2411L128.648 73.1814L129.147 74.592L129.325 75.2808L129.462 76.015L129.547 77.5088L129.463 78.3893L129.377 78.8382L129.288 79.1941L129.064 79.8659L128.594 80.8501L128.313 81.3074L127.551 82.2921L126.784 83.0626L125.677 83.9424L124.983 84.3975" />

<path stroke="blue" stroke-width="0.5pt" d="M124.983 84.3975L127.588 84.9476L131.07 85.4476L132.304 85.5612L133.736 85.6514L136.271 85.7024L137.859 85.6633L140.848 85.4403L142.519 85.2298L143.903 85.0081L146.714 84.424L150.13 83.4673L152.135 82.776L155.249 81.5083L156.61 80.8801L158.198 80.0905L158.885 79.7306L163.375 77.1309L166.598 75.0839L170.664 72.5893L172.336 71.7253L173.676 71.1583L175.502 70.6273L176.393 70.4913L178.189 70.5086L179.767 70.8987L180.552 71.2449L181.483 71.8067L182.401 72.5471L183.057 73.2094L183.714 74.0088L184.016 74.4297L184.397 75.0173" />

</g>

<path stroke-width="0.25pt" id="xaxis938" d="M146.809 5L145.498 6.05833L144.603 6.83479L142.818 8.53323L141.228 10.246L140.581 11.008L139.49 12.3953L138.642 13.5796L137.34 15.6289L135.902 18.366L135.306 19.7253L134.796 21.0534L134.507 21.9004L134.107 23.2409L133.519 25.8734L133.382 26.7451L133.21 28.2978L133.129 30.8573L133.228 32.6395L133.365 33.8115L133.651 35.413L133.954 36.6456L134.637 38.7016L135.142 39.8886L135.993 41.5194L136.704 42.6463L138.11 44.4577L139.46 45.8282L140.405 46.6251L141.637 47.5024L142.192 47.8449L142.893 48.2344L143.893 48.7143L145.053 49.167L145.583 49.3391L146.805 49.6573L148.384 49.913L149.762 49.9981L150.872 50.0253L151.834 50.1122L153.618 50.4405L155.179 50.9149L156.599 51.5108L157.835 52.1711L159.587 53.3681L160.514 54.1482L161.414 55.0238L161.988 55.6537L162.577 56.3686L163.64 57.8778L164.059 58.5713L165.158 60.7921L165.578 61.8729L165.997 63.1802L166.341 64.5506L166.54 65.5811L166.651 66.3009L166.863 68.8369L166.869 70.1634L166.81 71.4379L166.719 72.443L166.572 73.5684L166.454 74.2806L166.163 75.6931L165.752 77.259L164.903 79.7536L164.144 81.5352L163.549 82.7547L163.216 83.3849L162.52 84.607L161.423 86.3253L159.422 88.9883L158.32 90.263L156.952 91.6981L156.077 92.5432L154.223 94.1746L153.191 95M136.084 44.1069L137.522 41.4742M162.478 58.5258L163.916 55.8931M164.988 76.118L167.512 74.4971M132.488 25.5029L135.012 23.882M142.104 8.63465L143.583 8.3797M138.819 12.5275L140.264 12.1262M136.223 16.6341L137.621 16.0906M134.325 20.8565L135.662 20.1761M132.587 29.2633L133.762 28.3309M132.699 33.2627L133.775 32.2177M133.415 37.0111L134.381 35.8638M134.683 40.4299L135.53 39.1919M138.627 46.006L139.212 44.6244M141.159 48.0501L141.602 46.6171M143.956 49.54L144.254 48.0699M146.933 50.446L147.082 48.9535M152.918 51.0465L153.067 49.554M155.746 51.9301L156.044 50.46M158.398 53.3829L158.841 51.9499M160.788 55.3756L161.373 53.994M164.47 60.8081L165.317 59.5701M165.619 64.1362L166.585 62.9889M166.225 67.7823L167.301 66.7373M166.238 71.6691L167.413 70.7367M164.338 79.8239L165.675 79.1435M162.379 83.9094L163.777 83.3659M159.736 87.8738L161.181 87.4725M156.417 91.6203L157.896 91.3654" />

<g stroke="none" id="xticklabels938" fill="black">

<text transform="matrix(-0.408306, 0.912845, -0.912845, -0.408306, 149.303, 4.82316)">–1.5</text>

<text transform="matrix(0.74396, 0.668224, -0.668224, 0.74396, 138.002, 40.5966)">–0.5</text>

<text transform="matrix(0.743954, 0.668231, -0.668231, 0.743954, 164.395, 55.0155)">0.5</text>

<text transform="matrix(0.177154, 0.984183, -0.984183, 0.177154, 168.353, 73.9568)">1</text>

<text transform="matrix(-0.408312, 0.912843, -0.912843, -0.408312, 155.685, 94.8232)">1.5</text>

<text transform="matrix(0.177161, 0.984182, -0.984182, 0.177161, 135.854, 23.3417)">–1</text>

</g>

<path stroke-width="0.25pt" id="yaxis938" d="M105 53.1912L106.498 55.0157L107.562 56.1886L108.599 57.2471L110.587 59.0662L112.189 60.3542L113.162 61.0677L114.339 61.8639L115.033 62.3018L116.001 62.8749L118.146 63.9944L120.517 65.0066L122.689 65.7369L124.229 66.1447L126.794 66.6244L128.012 66.765L128.959 66.8352L129.886 66.8702L130.953 66.8687L131.984 66.8238L134.024 66.6038L135.358 66.3605L136.514 66.0814L137.265 65.8641L138.802 65.3238L139.691 64.9478L140.936 64.3335L142.724 63.2427L143.678 62.5401L144.72 61.6543L145.744 60.6322L146.229 60.0817L146.845 59.3083L147.506 58.3576L148.394 56.794L148.883 55.7048L149.233 54.7511L149.748 52.7433L149.902 51.7133L149.986 50.6413L150.02 49.2248L150.074 48.5136L150.176 47.7035L150.529 46.0407L150.958 44.7049L151.438 43.555L152.461 41.694L153.416 40.3517L153.899 39.7684L154.555 39.0521L155.461 38.1821L156.582 37.2592L158.041 36.2575L159.08 35.6581L159.754 35.3126L161.608 34.5186L162.894 34.0872L163.586 33.8918L164.66 33.6356L166.041 33.3865L167.893 33.1845L169.649 33.1249L171.867 33.2241L173.128 33.3649L174.989 33.6827L176.145 33.9461L177.862 34.4311L180.049 35.2145L181.632 35.9007L183.453 36.8207L184.994 37.7143L185.755 38.197L187.381 39.324L188.775 40.4032L189.905 41.3597L191.204 42.5613L192.392 43.7625L193.484 44.9646L195 46.8088M141.474 62.4777L144.107 63.9159M155.893 36.0841L158.526 37.5223M174.497 32.488L176.118 35.0124M123.882 64.9876L125.503 67.512M108.38 56.4175L108.635 57.8956M112.126 59.736L112.527 61.1813M116.091 62.3786L116.634 63.7767M120.176 64.3379L120.856 65.6747M128.331 66.2381L129.263 67.4131M132.218 66.2249L133.263 67.301M135.864 65.6189L137.011 66.5852M139.192 64.4699L140.43 65.3168M144.624 60.7884L146.006 61.3726M146.617 58.398L148.05 58.8413M148.07 55.7462L149.54 56.0442M148.953 52.9176L150.446 53.0674M149.554 46.9326L151.047 47.0824M150.46 43.9558L151.93 44.2538M151.95 41.1587L153.383 41.602M153.994 38.6274L155.376 39.2116M159.57 34.6832L160.808 35.5301M162.989 33.4148L164.136 34.3811M166.737 32.699L167.782 33.7751M170.737 32.5869L171.669 33.7619M179.144 34.3253L179.824 35.6621M183.366 36.2233L183.909 37.6214M187.473 38.8187L187.874 40.264M191.365 42.1044L191.62 43.5825" />

<g stroke="none" id="yticklabels938" text-anchor="middle" fill="black">

<text transform="matrix(-0.912845, -0.408306, 0.408306, -0.912845, 105.177, 55.6849)">–1.5</text>

<text transform="matrix(-0.668224, 0.74396, -0.74396, -0.668224, 144.985, 64.3954)">–0.5</text>

<text transform="matrix(-0.668231, 0.743954, -0.743954, -0.668231, 159.403, 38.0018)">0.5</text>

<text transform="matrix(-0.984183, 0.177154, -0.177154, -0.984183, 176.658, 35.8539)">1</text>

<text transform="matrix(-0.912843, -0.408312, 0.408312, -0.912843, 195.177, 49.3026)">1.5</text>

<text transform="matrix(-0.984182, 0.177161, -0.177161, -0.984182, 126.043, 68.3535)">–1</text>

</g>

<path id="leftarrow938" stroke="none" transform="matrix(-0.790724, 0.612173, 0.997495, -0.0707372, 146.809, 5)" d="M 0 0 L 0.5 -1.2 L -3 0 L 0.5 1.2 L 0 0 z" fill="black" />

<path id="rightarrow938" stroke="none" transform="matrix(-0.790732, 0.612162, 0.997495, -0.0707372, 153.191, 95)" d="M 0 0 L -0.5 -1.2 L 3 0 L -0.5 1.2 L 0 0 z" fill="black" />

<path id="bottomarrow938" stroke="none" transform="matrix(0.0707372, 0.997495, 0.612162, 0.790732, 195, 46.8088)" d="M 0 0 L -1.2 -0.5 L 0 3 L 1.2 -0.5 L 0 0 z" fill="black" />

<path id="toparrow938" stroke="none" transform="matrix(0.0707372, 0.997495, 0.612173, 0.790724, 105, 53.1912)" d="M 0 0 L -1.2 0.5 L 0 -3 L 1.2 0.5 L 0 0 z" fill="black" />

</g>

</svg>

